<?xml version="1.0" encoding="utf-8"?>
<!-- Generator: Adobe Illustrator 26.0.2, SVG Export Plug-In . SVG Version: 6.00 Build 0)  -->
<svg version="1.1" id="Layer_1" xmlns="http://www.w3.org/2000/svg" xmlns:xlink="http://www.w3.org/1999/xlink" x="0px" y="0px"
	 viewBox="0 0 122.9 98.9" style="enable-background:new 0 0 122.9 98.9;" xml:space="preserve">
<style type="text/css">
	.st0{fill-rule:evenodd;clip-rule:evenodd;fill:#2E3659;}
</style>
<path class="st0" d="M5.9,37.6c0-1.4,0.8-2.8,2.1-4.4l-7.7-4.8c-0.5-0.2-0.5-0.5-0.2-0.9l1.6-1.4c0.3-0.2,0.7-0.3,1-0.2l9.5,1.6
	l7.8-8.5L1.7,6.6c-0.5-0.3-0.5-0.6,0-1l2.6-2.1l24,6.7l7.1-7.6c2.4-2.1,4.7-3,6.5-2.5c0.8,0.1,1.5,0.7,1.6,1.5
	c0.6,1.8-0.3,4.2-2.5,6.7l-7.6,7.1l6.8,24L38.1,42c-0.4,0.5-0.7,0.4-0.9,0L24.7,23.6l-8.5,7.9l1.6,9.5c0.1,0.3,0,0.7-0.2,0.9
	l-1.4,1.6c-0.3,0.3-0.6,0.3-0.9-0.2l-4.9-7.7c-1.6,1.3-3,2.1-4.4,2.1C5.9,37.8,5.9,37.7,5.9,37.6z M39.7,68.1h-3.8l2.9-11.3h5.6
	l2.9,11.3h-3.8l-0.4-1.8h-3L39.7,68.1L39.7,68.1z M41.5,60.3l-0.7,3.2h1.7l-0.7-3.2H41.5z M48.4,68.1V56.8H52v11.3H48.4z M64.1,68.1
	h-4l-1.5-3.4h-0.8v3.4h-3.6V56.8H60c2.6,0,3.9,1.3,3.9,4c0,1.8-0.6,3-1.7,3.6L64.1,68.1L64.1,68.1z M57.9,59.7V62h0.8
	c0.3,0,0.6,0,1-0.1c0.2-0.1,0.3-0.3,0.3-0.6v-0.7c0-0.3-0.1-0.5-0.3-0.6c-0.3-0.1-0.6-0.2-1-0.1L57.9,59.7z M71.7,65.4h-2.3v2.7
	h-3.6V56.8h5.7c2.6,0,3.9,1.4,3.9,4.2c0.1,1.2-0.3,2.4-1,3.4c-0.3,0.3-0.6,0.5-1,0.7C72.9,65.3,72.3,65.4,71.7,65.4L71.7,65.4z
	 M69.4,59.7v2.8h0.8c0.3,0,0.7,0,1-0.1c0.2-0.1,0.3-0.4,0.3-0.6v-1.3c0-0.2-0.1-0.5-0.3-0.6c-0.3-0.1-0.7-0.2-1-0.1L69.4,59.7z
	 M76.3,62.5c-0.1-1.6,0.3-3.1,1.1-4.5c0.8-0.9,2.2-1.4,4.2-1.4S85,57,85.8,58c0.9,1.3,1.3,2.9,1.2,4.5c0,0.9-0.1,1.7-0.3,2.5
	c-0.1,0.7-0.4,1.3-0.8,1.8c-0.4,0.5-1,1-1.6,1.2c-1.7,0.5-3.5,0.5-5.2,0c-0.6-0.2-1.2-0.6-1.6-1.1c-0.4-0.6-0.7-1.2-0.8-1.9
	C76.4,64.2,76.3,63.3,76.3,62.5L76.3,62.5z M80.2,60.6v4.7h1.5c0.4,0,0.7,0,1.1-0.2c0.2-0.1,0.3-0.4,0.3-0.8v-4.7h-1.5
	c-0.4,0-0.7,0-1.1,0.2C80.3,59.9,80.2,60.2,80.2,60.6z M98.5,68.1h-4L93,64.7h-0.8v3.4h-3.6V56.8h5.7c2.6,0,3.9,1.3,3.9,4
	c0,1.8-0.6,3-1.7,3.6L98.5,68.1L98.5,68.1z M92.2,59.7V62h0.8c0.3,0,0.7,0,1-0.1c0.2-0.1,0.3-0.3,0.3-0.6v-0.7
	c0-0.3-0.1-0.5-0.3-0.6c-0.3-0.1-0.7-0.2-1-0.1L92.2,59.7z M108.2,59.7h-2.6v8.4H102v-8.4h-2.7v-2.9h8.8
	C108.2,56.8,108.2,59.7,108.2,59.7z M72,29.7c5,0,9,4,9,9s-4,9-9,9c-5,0-9-4-9-9S67,29.7,72,29.7z M72,33.9c2.7,0,4.8,2.1,4.8,4.8
	s-2.1,4.8-4.8,4.8c-2.7,0-4.8-2.1-4.8-4.8c0,0,0,0,0,0C67.2,36.1,69.3,33.9,72,33.9C72,33.9,72,33.9,72,33.9z M36.6,73.5h11.9v5.6
	H36.6V73.5z M59.8,73.5h24.6v5.6H59.8V73.5z M95.6,73.5h11.9v5.6H95.6V73.5z M95.6,84.4h11.9V90H95.6C95.6,90,95.6,84.4,95.6,84.4z
	 M59.8,84.4h24.6V90H59.8C59.8,90,59.8,84.4,59.8,84.4z M36.6,84.4h11.9V90H36.6C36.6,90,36.6,84.4,36.6,84.4z M119.7,95.6V50.1
	H91.6V34.9L72.1,20.2L52.5,34.9v15.2H24.4v45.6H72L119.7,95.6L119.7,95.6z M122.9,48.5v50.3H72H21.2v-52h28.1V33.3l22.8-17.1
	l22.7,17.1v13.6h28.1C122.9,46.9,122.9,48.5,122.9,48.5z"/>
</svg>
