<?xml version="1.0" encoding="utf-8"?>
<!-- Generator: Adobe Illustrator 26.0.2, SVG Export Plug-In . SVG Version: 6.00 Build 0)  -->
<svg version="1.1" id="Layer_1" xmlns="http://www.w3.org/2000/svg" xmlns:xlink="http://www.w3.org/1999/xlink" x="0px" y="0px"
	 viewBox="0 0 441.2 349.3" style="enable-background:new 0 0 441.2 349.3;" xml:space="preserve">
<style type="text/css">
	.st0{fill:#FFFFFF;stroke:#1B4B96;stroke-width:0.5;stroke-miterlimit:10;}
	.st1{fill:#898989;}
</style>
<g>
	<path class="st0" d="M397.7,100.1c-0.2,6.8-1.7,13.2-3,19.5c-12.9,61.8-40.8,115.8-84.2,161.8c-24.9,26.3-53.7,47.5-85.5,64.7
		c-2.1,1.1-3.7,1.4-6,0.2c-50.9-27.3-92.5-64.6-123.9-113.1c-0.4-0.7-0.8-1.4-1.5-2.7c3.6-0.7,7.1-0.3,10.4-1.2
		c3.9-1.1,7.8-2.3,10.8-5c3.2-2.9,6.4-2.9,10.4-2.8c9.8,0.5,19.5,2,29.3,0.8c3.5-0.4,6.8-1.6,9.8-3.5c1.9-1.2,3.8-1.9,6-2.3
		c8.3-1.5,8.8-1.3,11.6,6.3c1.2,3.4,3.3,6.1,6.2,8.2c17.1,12.5,41.4,10.2,55.8-5.4c0.8-0.9,1.8-1.6,2.3-2.6
		c4.2-8.3,11.4-10.8,20.2-11.9c10.9-1.3,21.7-3.4,32.4-5.5c2.4-0.5,3.6,0.1,4.9,1.9c3.2,4.5,7,8.4,11.9,11.2
		c7.4,4.3,14.2,3.4,20.5-2.4c4.2-3.9,7.6-8.5,9.8-13.7c1.2-2.8,2.8-4,5.6-3.4c7.9,1.7,11.5-2.2,14.8-9.1
		c13-27.6,23.1-56.1,28.9-86.1C395.2,102.6,395,100.7,397.7,100.1z"/>
	<path class="st0" d="M104.3,134.8c1.2,0,2.3,0,3.5-0.1c0.1,0.4,0.1,0.9,0.2,1.3c-7.9,0.4-15.7,0.8-24,1.3c1.8,2.9,1.2,5.6,0.4,8.3
		c1.4-0.3,2.5-0.5,3.6-0.7c1.3,1,2.7,1.8,4.5,0.9c7.2,0,14.3,0,21.5,0c0.5,0.1,0.9,0.1,1.4,0.2c17.9,0.1,35.9,0.1,53.8,0.3
		c2.4,0,4-0.8,5.7-2.3c5.1-4.7,9.6-10.2,16.3-12.9c4.6-1.6,8.9-0.8,13,1.8c1.2,0.8,2,2.8,3.6,2.4c6.8-1.5,13.6-3.3,20.4-4.9
		c-12.2-0.9-24.1-0.9-36.1-0.9c-0.3,0-0.7,0.1-1,0.2c-8,0-16,0-23.9,0c-0.6-0.1-1.1-0.1-0.9,0.7c0.4,3.3-1.3,4.7-4.4,5.4
		c-8.8,1.8-17.6,2.5-26.6,0.8c-6.7-1.2-13.5-1.5-20.2,0.3c0-0.8,0-1.6,0.1-2.4c8.3,0.1,16.6,0.3,23.8-4.9c2.5,2,4.8-0.8,7.2-0.4
		c1.3,0,2.6-0.1,4-0.1c0.6,0.3,0.9-0.2,1.1-0.6c24.5-2.9,49.1-0.1,73.6-0.1c15.8,0,31.6,0.5,47.4,1.1c5.2,0.2,7.8-2,8.5-6.9
		c0.8-5.3,0.4-10.6,0.6-15.9c0.1-2.5-1.9-2.5-3.3-2.9c-15.4-4.1-31.1-5.1-46.9-4.7c-14.5,0.4-28.8,2.3-43.1,4.7
		c-1.1,0.2-1.9,0.5-2.5-1c13-4.1,26.4-5.8,39.8-7c20.6-1.9,41.2-2.5,61.6,1.5c4.4,0.9,8.7,2.1,12.9,3.7c7.3,2.7,13.1,6.9,16.4,14.3
		c2.3,5.2,5.4,10.2,8.2,15.4c-2.9,0.9-5.7,0.2-7.9,2c-0.6,0.4-1.2,0.8-1.8,1.2c-0.3,0.3-0.6,0.7-0.9,1c-1.2,1.9-2.8,1.9-4.8,0.8
		c2.4-2.5,4.3-5.2,7.6-6c1.7-0.4,1.5-1.1,0.9-2.4c-5.3-10.5-10-21.5-25.2-19.9c0.4,6.4,1,13.3,1,20.2c0,2.8,1,4.5,3.1,5.9l0,0.1
		c-2.2-0.1-4.5-0.3-6.7-0.4c-0.5-0.1-0.9-0.2-1.4-0.2c-1-0.1-2-0.2-3-0.4c-4.4-0.3-8.7-2.1-13.1,0.4c4.4,0.4,8.8,0.8,13.1,1.2
		c8,1.2,16.1,1.9,23.9,4.2c3.1,0.9,4.7,0.1,5.9-2.5c0.2-0.2,0.5-0.5,0.7-0.7c0.6-0.5,1.2-0.9,1.8-1.4c12.9-1.7,25,1.6,36.7,6.7
		c3.7,1.6,4.1,5.9,4.9,9.4c1.4,6.4,1.5,12.9,0.9,19.4c-0.2,3.1,0,5.6,4.1,3.9c0.7-0.3,0.8,0,1.1,0.3c0.6,0.8,0.5,1.6-0.1,2.2
		c-1.1,1.1-2.5,1.6-4,1.7c-2.5,0.2-5,0.3-6.6,3.7c-1.3-7.7-1.6-14.5-3.9-21c-2.5-7-5.7-10.2-9.8-9.7c-4.1,0.5-7.1,5.7-7.4,12.6
		c1.1,0.1,1.2-0.9,1.5-1.6c1.2-2.8,2.4-6,6-5.8c3.2,0.2,4.4,3.4,5.2,6.1c3.5,11.8,5.3,23.7,0.3,35.6c-2.4,5.8-5.5,10.8-12.5,11.3
		c-6.8,0.5-12.1-3.2-14.3-8.9c-2.7-7-7-6.1-12.4-5.1c-14.7,2.6-29.5,5-44.8,7.6c0.7-7.9,0.6-15.5-0.1-23c-0.7-7.3-1.8-14.5-4.9-21.3
		c-3.2-7-7.9-12-16.1-12.1c-8.2,0-13.7,4.3-17.2,11.5c-4.1,8.3-5.7,17.3-7.8,26.2c-0.9,3.9-2.4,6-7,6.3c-17.8,1.2-35.5,2.3-53.3,2.6
		c-20.9,0.4-41.9,1.1-62.8-0.1c-8.6-0.5-17.5-0.5-25.7-3.9c8.8,0.1,17.6,0.2,26.5,0.3c0.5,0.1,1,0.1,1.5,0.2
		c8.3,0.2,16.5,0.4,24.8,0.6c0.3,0.4,0.7,0.7,1.1,0.2c1.7,0,3.4,0,5.2,0c0.3,0,0.6,0,0.9,0.1c1.3,0.6,2.7,0.7,4,0.2
		c8.2-0.1,16.6,2.2,24.6-1c0-0.5-0.1-0.9-0.1-1.4c-8.2,0-16.3,0-24.5,0c-8.4-0.2-16.7-1.2-25.1-0.5c-0.3-0.3-0.6-0.4-0.9-0.1
		c-4.3-1.1-8.7-0.1-13.1-0.6c0-0.3,0-0.7,0-1c8.7-0.2,17.3-0.3,26-0.5c0.3,0,0.7,0,1,0c4,0.3,8.1,1,12-0.6c0.3,0,0.7,0,1,0l0,0
		c0.1,0.8,0.5,1,1.2,0.6c3.2,0,6.3,0,9.5,0c0.7,0.3,1.1,0.1,1.2-0.6l0,0c0.3,0,0.7,0,1,0l0,0c0.9,1.7,2,1.1,3.1,0.3
		c2.6,0,5.3-0.1,7.9-0.1c1.2,0,2.2-0.1,2.6-1.6c0.6-2.8-1.9-6.7-4.5-7.1c-7.2-1-8.6-0.3-9.1,4.5c-0.3,0.1-0.7,0.1-1,0.2
		c0-1.4-0.1-2.8-0.1-4.1c0.1-0.6-0.1-0.9-0.7-0.7c-3.3,0-6.7-0.1-10-0.1c-0.6-0.1-0.9,0.1-0.7,0.7c-0.1,1.3-0.3,2.7-0.4,4
		c-0.4,0.1-0.7,0.1-1.1,0.2c-0.5-0.1-0.9-0.3-1.4-0.4c4.1-5.1,0.2-4.8-3.3-4.8c-1,0-2-0.3-3-0.1c-1.5,0.2-3.7-1.1-4.2,2
		c-0.5,3.3,2.8,1.4,3.5,3.3c-19,0.1-37.8-0.3-56.6,0.9c-0.2-0.3-0.4-0.8-0.9-0.3c-1.3-0.4-2.7-0.4-4,0.1c-0.5-0.4-0.9,0-0.8,0.4
		c0,0.3,0.4,0.6,0.7,1c1.1,1.8,2.2,3.6,4.5,4l0,0c0.6,0.7,1.1,1.4,1.7,2.1c-6.4-1.2-13.4-1-16.1-8.8c-0.3-1-0.7-1.9-0.1-3.3
		c2.2-4.6,2.1-4.6-2-8.5c7.6-4.6,15.1-8.9,22.5-13.6c2.9-1.9,6.8-3.4,6.6-8l-0.1,0.1c3.2-2,2.2-4.1,0-6.1l0.1,0.1
		c-0.2-0.5,0.1-1.5-1.1-1.1l0.1,0c-0.9-1.9-1.4-3,1.7-3.1c8-0.2,16-0.8,24-1.2C103.3,134.8,103.8,134.8,104.3,134.8z M333.1,203
		l0,0.3L333.1,203c-0.4-0.3-0.6-0.7-0.9-1.1c-2-3.6-2.7-7.6-4.4-11.4c-1.2,4.8,0.7,8.6,3.6,12.2C332,203.2,332.5,203.6,333.1,203z
		 M107.1,171.2c-2.2,1-0.4,2.8-0.9,4.1c-0.5,2.6,0.1,4.2,3.2,3.8c1.6-0.2,3.4-0.2,5,0c3.3,0.5,4.1-1,3.4-3.9c0-0.8-0.1-1.6-0.1-2.3
		c0.3-1.7-0.8-1.8-2-1.8C112.9,171.2,110,171.2,107.1,171.2z M93.4,172.1c0,0.7,0,1.3,0,2c-1,3.6-0.3,5.7,4.1,5c1.3-0.2,2.7-0.1,4,0
		c4.6,0.2,4.5-1.8,2.5-5c0.6-1.4,1.9-3.1-1.3-3c-2.9,0.1-5.8,0.2-8.7,0.3C93.5,171.3,93.2,171.5,93.4,172.1z M293,179.9
		c1.2,0.1,2.5,0.1,3.7,0.2c-8,3-16.6,2.5-24.8,4.1c-3,0.6-3.9-0.4-4.3-3.4c-1.3-9.9-3.7-19.6-8.8-28.3c-1-1.7-1.6-4.1-4.8-4.5
		c9.6,15.9,10.8,33.2,11.1,50.9c4.1-0.6,8-1.3,11.9-1.9c14.3-2.3,28.5-4.6,42.7-7c2.4-0.4,4.5-0.9,5.7-4.3c3.2-9.7,1.1-19-0.3-28.5
		c-0.8-5.5-2.6-10.8-6.7-14.9c3.5,8.2,5,16.8,5.4,25.5c0.6,11.5,1.5,9.4-8.8,10.4c-3.6-2.2-7.3-1.6-11-0.2c-1.7,0-3.3,0.1-5,0.1
		c-2.1-0.2-4.1-0.4-6.1,0.5c-0.7,0-1.4,0.1-2.1,0.1c-0.3,0-0.6,0.1-1,0.1c-2.8-3.5-2.7-7.7-2.8-11.8c-0.2-5.9,0-11.9,0-17.9
		c-1.6,9.3-2.6,18.6-2,28c0.1,2.1,0.9,3.5,3.5,2.9C289.9,180.1,291.5,180.1,293,179.9z M80.4,172.1c0,2,0,4,0,6c0,0.5,0,0.8,0.6,0.3
		c3.4,0.5,6.8,0.4,10.1,0c0.5,0.4,0.7,0.2,0.7-0.4c0.2-7,0.2-7-6.4-7c-1.5,0-2.9,0.2-4.4,0.3C80.5,171.3,80.2,171.5,80.4,172.1z
		 M230.8,140.9c-11.7,4.6-20.7,20.3-19.3,34c3.2-13.2,8.8-24.9,20.1-33.1c0.4-0.4,0.8-0.9,1.2-1.3
		C231.9,139.8,231.3,140.3,230.8,140.9z M108.1,164.5l0.4,0.3l0.5-0.1c5.1,0.8,10.2,0.2,15.5,0.4c-0.9-1.1-2-0.8-2.9-0.9
		c-12.4-0.9-24.8-1.8-37.1-2.8c-6.7-0.5-6.7-0.6-3.5-6.4c0.1-0.1-0.3-0.4-0.6-0.9c-3.5,3.1-7.6,5.6-11,10.1c8.4,0,16,0,23.6,0
		c0.3,0,0.6,0.1,1,0.1C98.6,165.1,103.4,164.8,108.1,164.5z M342.9,193.1c1.7-1.7,1.6-3.9,1.8-6.1c0.1-1.2,0.3-2.3,0.4-3.5
		c0.2-6,0.1-12-2.5-17.6c-2.2-4.6-3.9-4.6-7.8-1.4c-1.6,1.3-2.5,2.9-2.7,4.3c-0.8,8.4-1.4,16.8,1.5,25c0.9,2.3,2,5.2,4.8,5
		C341.4,198.6,342.8,196.1,342.9,193.1z M223.8,134.4c-6-0.9-10.2,0.9-14.4,2.1c-2.4,0.7-4,1-6-1.1c-3.9-3.8-8.8-4.3-13.2-1
		c-8.7,6.5-16.2,14.3-21,24.2c-2.8,5.9-0.5,9.4,6,9.5c10.3,0.1,19.6-3.2,27.4-9.9c4.3-3.7,6.4-8.6,4.9-14.3
		c-0.7-2.8,0.4-3.8,2.6-4.9C214.1,137.1,218.4,136.1,223.8,134.4z M291.2,119.1c-0.2,0-0.4,0-0.6,0c0-3.5-0.1-6.9,0-10.4
		c0.1-2.3-1.1-2.8-2.9-3.1c-2.7-0.5-2,1.8-2.1,2.9c-0.6,6.1-0.6,12.2-1.4,18.3c-0.6,4.3,2.1,4.1,4.7,4.4c3.8,0.4,2-2.6,2.2-4.1
		C291.4,124.4,291.2,121.7,291.2,119.1z M73.2,178.7c1.5-2.2,5.5,2.8,5.8-2.5c0.3-4.6-2-5.9-6.1-5.1c-0.5,0.1-1,0.1-1.5,0
		c-3.5-0.7-4.4,0.9-4.4,4.3C67.1,180.9,71.3,177.1,73.2,178.7z M178.2,183.2c2.9-0.1,4.6-1.7,4.6-4.4c0-2.7-1.8-4.4-4.5-4.3
		c-2.4,0.1-4.1,1.6-4.2,4.1C174,181.3,175.6,182.9,178.2,183.2z M61.4,178.3c2.6-0.1,5.2,0.8,4.7-2.6c-0.3-2,1-5-3.1-4.6
		c-2.4,0.2-5.3-0.6-5.4,3.3C57.4,177.5,59.2,178.7,61.4,178.3z M318.3,137.4c4.2-1.3,8.7,0.2,12.8-1.4
		C326.7,135.5,322.1,133.2,318.3,137.4z M239.8,132c4.2,1.9,8.1-0.6,12.2-1C247.9,131.5,243.8,131.4,239.8,132z M132.7,172.3
		c3.7,0.8,7.5,1.6,11.2-0.1C140.1,170.8,136.4,170.9,132.7,172.3z M119.5,172.6c3.8,0.4,7.7,1.5,11.3-0.6
		C127,171.4,123.2,170.3,119.5,172.6z M336.5,147.4c-4.4,1.3-6,4.5-6.2,8.6C332.1,152.9,334.1,149.9,336.5,147.4z"/>
	<path class="st0" d="M209.3,200.4c2.5-0.7,4.1-2.7,6.5-4.2c1.3,4.4,2,8.8,4.2,12.7c5.9,10.5,15.8,10.9,22.3,0.7
		c6.5-10.2,6-27.6-1.1-37.4c-4-5.5-8.7-6.7-15.7-4c0-5,3.4-10.7,7.1-11.9c4.3-1.4,9.1,0.5,12.6,5.1c11.1,14.5,10.9,44.6-0.5,58.9
		c-7.5,9.4-17.7,11.1-28.8,9.8c-11.1-1.3-17.2-8.4-20.7-18.4c-2.8-8-2.8-8-11.4-8c-1.8,0-3.7,0.2-5.5,0c-3.1-0.3-5.1,0.6-6.9,3.4
		c-3.6,5.4-9.4,7.2-15.6,7.2c-9.5,0-19-0.4-28.5-0.7c-1.6,0-3-0.2-4.5,1.1c-16,13-41.6,6-48.3-13.2c-1.1-3.2-2.5-4.2-5.8-4.6
		c-7.4-0.8-14.9-1.5-22.1-3.7c-1.1-0.3-3.7-0.2-2.6-2.5c0.6-1.3,1.9-2.3,4.1-1.6c13.7,4.5,28.1,5,42.3,6c31.9,2.4,63.9,2.8,95.9,2.7
		c8.2,0,16.3-0.9,24.3-2.4c0.1,2-1.5,2.9-2.4,4.2c-0.6,0.4-1.2,0.9-1.9,1.3C207.4,201.5,208.4,201.4,209.3,200.4z M217.9,217.2
		c0.3,0.4,0.6,0.7,0.9,1.1c4.4,5.1,9.1,6.3,13.2,3c-4.9,0.3-9.1-0.8-12.5-4c-0.2-0.3-0.4-0.5-0.7-0.7c-0.5-0.5-0.9-1.8-1.7-1.2
		C216.4,216,217.1,216.8,217.9,217.2z M143.1,202.9c8.5,0.2,17,2.2,25.5,0.9c0-0.8,0-1.6,0-2.5c-8.5,0-17,0-25.5,0
		c-5.8,0-11.7,0-17.5,0c0,0.2,0,0.4,0,0.5C131.4,202.3,137.2,202.6,143.1,202.9z M116.3,210.6c4,2,7,1.9,10.1,0.5
		C123.4,209.8,120.4,209.9,116.3,210.6z M97.9,208.6c-2.7-2.8-6.4-3.4-10.9-5.7C90.2,207.7,94.1,207.8,97.9,208.6z M123.7,201.2
		c-4.2-1.3-8.5-1.3-12.8-0.4C115.2,200.3,119.4,202.6,123.7,201.2z M87.1,202.1c-0.3,0.3-0.6,0.5-0.8,0.7c0.4,0.2,0.7,0.5,1.2,0.6
		c0.1,0,0.3-0.4,0.5-0.6C87.7,202.6,87.4,202.3,87.1,202.1z"/>
	<path class="st0" d="M46.7,100.2c1.5,0.1,1.3,1,1.5,1.8c2.3,10.7,4.4,21.3,7.7,31.7c0.5,1.6-0.2,2.5-1.7,3
		c-1.9,0.5-1.7-1.2-1.9-2.1c-2.5-10.4-4.7-20.9-6.2-31.6C46,102.1,45.4,100.8,46.7,100.2z"/>
	<path class="st0" d="M236.7,172.7c7.1,6.4,9.7,19.3,6.2,28.5c-1.8,4.8-4.3,9.3-11.8,10.2c7.6-4.6,10.3-10.7,10.8-17.9
		C242.3,186.4,240.7,179.8,236.7,172.7z"/>
	<path class="st0" d="M78.1,146.1c-2.8,0.4-3.2,4.7-7.1,4c2.5-3,4.9-5.8,4-10c-0.3-1.5,1.7,0.2,2.1-1c0,0-0.1,0-0.1,0
		c-0.4,1.2-0.1,1.6,1.1,1.1c0,0-0.1-0.1-0.1-0.1C78,142.1,78,144.1,78.1,146.1L78.1,146.1z"/>
	<path class="st1" d="M115.1,134.2c0,0.8,0,1.6-0.1,2.4c-2.5,2.1-4.6-1.3-7.1-0.6c-0.1-0.4-0.1-0.9-0.2-1.3
		C110.1,133.5,112.6,134.1,115.1,134.2z"/>
	<path class="st1" d="M104.3,134.8c-0.5,0-1,0-1.4,0.1C103.3,134.2,103.8,134.2,104.3,134.8z"/>
	<path class="st1" d="M117.9,175.3c-3.9-0.1-7.8-0.6-11.6,0c0.4-1.3-1.3-3.1,0.9-4.1c-0.3,1.7,0.8,1.8,2,1.8c2.9,0,5.8-0.1,8.7-0.1
		C117.8,173.7,117.9,174.5,117.9,175.3z"/>
	<path class="st1" d="M315,178.4c-2.9,1.4-6.2,0.8-9.3,1.6c-1.2,0.3-1.7-0.7-1.7-1.8C307.7,176.8,311.3,176.2,315,178.4z"/>
	<path class="st1" d="M239.8,132c4.1-0.7,8.2-0.5,12.2-1C247.9,131.5,244,133.9,239.8,132z"/>
	<path class="st1" d="M92,186.2c-5.1,0-10.3,0-15.4,0c0-0.3,0-0.7,0-1c5.1,0,10.3,0,15.4,0C92.1,185.5,92.1,185.8,92,186.2z"/>
	<path class="st1" d="M87.9,144.9c1.7-1.2,3.6-1.9,5.7-1.9c0.3,1.4-2,1.3-1.2,2.7C90.6,146.7,89.2,145.9,87.9,144.9z"/>
	<path class="st1" d="M132,180.1c0,1.3,0,2.7,0.1,4c-0.3,0-0.7,0-1,0c0-1.3-0.1-2.6-0.1-3.9C131.3,180.2,131.6,180.2,132,180.1z"/>
	<path class="st1" d="M144,184.1c0-1.3-0.1-2.6-0.1-3.9c0.3-0.1,0.7-0.1,1-0.2c0,1.4,0,2.7,0.1,4.1
		C144.7,184.1,144.4,184.1,144,184.1z"/>
	<path class="st1" d="M145,184.1c1,0.1,2.1,0.2,3.1,0.3C147,185.3,145.9,185.8,145,184.1z"/>
	<path class="st1" d="M132,184.1c0.4,0.2,0.8,0.4,1.2,0.6C132.6,185.1,132.2,184.9,132,184.1z"/>
	<path class="st1" d="M142.8,184.8c0.4-0.2,0.8-0.4,1.2-0.6C143.9,184.9,143.5,185.1,142.8,184.8z"/>
	<path class="st1" d="M113.8,145.8c0.5-0.7,1-0.5,1.4,0.2C114.7,145.9,114.3,145.8,113.8,145.8z"/>
	<path class="st1" d="M116.3,210.6c4.1-0.8,7.1-0.9,10.1,0.5C123.3,212.5,120.3,212.6,116.3,210.6z"/>
	<path class="st1" d="M123.7,201.2c-4.3,1.4-8.5-1-12.8-0.4C115.2,199.9,119.5,199.9,123.7,201.2z"/>
	<path class="st0" d="M201.3,152.6c-2.4,5.4-5.7,7.2-10.1,6.1c-5.7-1.4-7.6-5-6.9-14.1c1.5,4.1,2.3,7.8,5.9,9.7
		C193.9,156.3,197.2,155,201.3,152.6z"/>
</g>
<g>
	<path class="st0" d="M176.5,46.9c-8.3,5.4-13.4,3.8-16.2-4.4c-1-2.8-1.8-5.7-3-8.4c-1.4-3.2-4.3-3.8-7.1-2.7
		c-2.6,1-0.9,3.3-0.7,5.1c0.3,2.3,0.8,4.6,0.9,6.9c0.3,3.4,0.6,6.7,5,7.6c-5.9,0.9-11.9,1.8-17.8,2.7c3.7-2.5,3.4-5.6,2.7-9.4
		c-1.4-8-2.2-16.1-3.5-24.1c-0.5-3.2-0.2-6.7-4-9.6c7.9-1.1,14.5-2.4,21.3-3c7.5-0.6,12.3,2.2,13.7,7.3c1.6,5.6-0.7,10-8.8,14.7
		c8.9,0.5,10.2,6.8,12.2,12.6C172,44.4,173.4,46.1,176.5,46.9z M158.1,21.2c-0.1-4-1-7.5-2.5-9.3c-2-2.4-4.6-3.2-7.5-2
		c-3,1.2-2.1,3.7-1.8,5.9c0.5,3.1,1,6.2,1.4,9.3c0.7,4.6,3.3,5.7,7.3,3.1C157.6,26.4,158.2,23.7,158.1,21.2z"/>
	<path class="st0" d="M105.1,15c8.4-2.1,14.2-0.5,16.6,3.9c2.8,5.1,1.3,9.5-6.1,16.7c6.9,0.1,9.1,4.9,11.4,9.9
		c1.2,2.6,1.6,6.1,5.8,6.2c-6.6,5.8-12.4,4.7-15.6-2.7c-1.3-3-2.5-6.1-4.1-9c-1.3-2.5-3.5-3.3-6.4-2.3c-3.3,1.2-1.6,3.4-1.2,5.4
		c0.5,2.8,1.1,5.5,1.8,8.3c0.7,2.8,1.3,5.8,5.5,5.8c-6,1.3-12,2.7-17.9,4c4-2.3,3.2-5.4,2.3-8.9C95,43.1,93,33.9,91,24.6
		c-0.6-2.9-2-4.8-5.2-5.8c4.2-0.9,8.1-1.8,12-2.5c1.7-0.3,2.6-0.3,2.8,2.4c0.3,5.1,1.9,10.1,2.8,15.1c0.5,2.5,1.8,2.9,3.9,2.2
		c2.8-0.9,5.3-2.4,5.6-5.7c0.5-4.9-0.2-9.7-4.3-13.2C107.8,16.5,106.8,16,105.1,15z"/>
	<path class="st0" d="M28,59.7c5.4-2,10.8-4.1,16.5-6.3c-2.5,7,3.2,11.9,3.9,18.8c-3.1-3.1-5-1.9-7.2,0.7c-4.7,5.6-11,8-18.1,7.7
		C11.9,80.1,2,66.9,3.3,54.8c1.4-12.7,11.9-21.2,24.1-19.6c2.7,0.4,5.4,1,3.8-4.1c0.5,0.1,1,0.3,1.5,0.4c1.7,4.5,3.5,9.1,5.5,14.3
		c-2.7-0.5-3.1-2.2-3.9-3.4c-3.6-5-8.4-6.8-13.9-5.1c-4.3,1.3-7.5,5.7-7.3,11.3c0.3,9.6,3.6,18.2,9.9,25.5c2.4,2.8,5.7,3.9,9.5,3.2
		c4.8-0.9,6.1-3.5,4.7-8.2C35.6,64.2,33.7,60.2,28,59.7z"/>
	<path class="st0" d="M262.4,6c-0.3,4.3-0.6,8.6-0.9,12.9c-0.3,0-0.6,0.1-1,0.1c-0.5-1.6-1-3.3-1.5-4.9c-0.9-2.9-2.4-5.5-5.3-6.9
		c-3.3-1.7-6.6-1.6-9,1.5c-2.2,2.9-1.6,6.1,0.7,8.7c1.6,1.8,3.8,3.2,5.7,4.8c2.9,2.3,6,4.3,8.6,6.8c3.5,3.3,4.9,7.5,3.4,12.3
		c-1.5,4.6-4.9,6.9-9.4,8c-5,1.1-10,1-14.5-1.5c-2.4-1.3-3.8-1-5.9,1c0.2-4.4,0.5-8.8,0.8-13.9c2.3,1.8,2.2,3.7,2.7,5.4
		c1,3,2.5,5.7,5.4,6.8c3.5,1.2,7.4,1.8,10.1-1.7c2.8-3.6,1.7-7.4-1.3-10.3c-2.7-2.6-5.9-4.8-9-7.1c-7.2-5.4-9.6-11.7-6.5-17.3
		c3.2-5.7,12.1-7.8,19.6-4.6C257.5,6.8,259.7,8.9,262.4,6z"/>
	<path class="st0" d="M76.4,51.2c-3.3-2.1-4.7-5.4-8.8-5.2c-2.3,0.1-3.5,0.8-2.8,3.3c1.2,4.1,2.5,8.2,3.7,12.4
		c0.7,2.4,2.2,2.9,4.6,2.6c6.4-0.8,9.8-4.4,10.1-10.9c0.1-1.8,0-3.6,1-5.7c1.4,4.2,2.9,8.3,4.3,12.5c0.4,1.3-0.8,1.6-1.8,1.8
		c-0.5,0.1-1,0.3-1.4,0.4c-9.5,2.8-19,5.6-28.9,8.2c3.7-2.8,2.7-6.1,1.6-9.5c-2.6-8.4-5.2-16.8-7.6-25.2c-0.9-3.2-1.6-6.3-6.4-5.8
		c5.6-2.5,10.9-4.2,17-5c-2.5,1.9-2.2,4.1-1.4,6.4c1.1,3.3,2,6.7,3.1,10c0.4,1.2,0.2,3.1,1.8,3.2c1.7,0.1,3.1-0.9,4.2-2.4
		c1.6-2.2,1.2-5,2.8-7.6C73,40.4,74.7,45.8,76.4,51.2z"/>
	<path class="st0" d="M362.8,66.2c8.8-1,14-7.8,20.5-12.5c1.1-0.8,0.8-2.1,0.4-3.2c-3.1-8.1-5-16.7-9.6-24.9
		c4.4,1.2,8.3,2.2,12.3,3.3c1,0.3,2,0.8,2.1,1.9c2,14.8,9.3,28,13.3,42.1c0.4,1.5,2,3.3,0.7,4.7c-1.4,1.6-3-0.4-4.5-0.7
		c-3.7-0.7-7.2-1.9-11.4-3.4c5.2,0.4,4.8-1.9,3.4-4.9c-0.8-1.8-1-3.9-2.1-5.6c-1.5-2.4-0.2-7.6-4.2-6.9c-5.8,1.1-9.7,8.4-8.1,13
		c0.1,0.3-0.1,0.6-0.2,1.5C371,69.3,366.4,69.6,362.8,66.2L362.8,66.2z"/>
	<path class="st0" d="M194.1,4.8c-5.2,2.9-5.3,2.9-2.4,7.6c2.6,4.3,5.3,8.7,8.5,14c2.1-5.4,4-9.8,5.5-14.3c1.5-4.3-1.1-6.2-6.3-7.1
		c5.3-1.4,9.1-1.4,14.1-1.6c-5,5.7-6.6,12.1-9.6,17.9c-3.8,7.3-1.3,14.6-1,22c0.1,2.7,3.3,1.8,4.5,3.6c-6.1,1.6-12.3,0.8-18.5,1.6
		c3.4-3.4,5-13.5,2.3-17.9c-5-8.2-9.5-16.7-16.4-24.7C181.2,5.6,187.2,5.2,194.1,4.8z"/>
	<path class="st0" d="M362.8,66.2c-4.2-0.9-8.5-1.7-12.7-2.6c-1.9-0.4-4.2-0.8-1.5-3.4c0.4-0.4,0.2-1.6,0.2-2.4
		c-0.1-4.6-2.3-8.8-2.5-13.2c-0.1-4.9-1.4-9.6-2.1-15.2c-3.9,3.7-6.3,7.5-7.8,11.5c-1.5,3.8,3.4,1.3,4.8,3.9
		c-3.7,0.4-8.1-1.9-10,3.6c-1.3,3.9-4,7.2,0.9,12c-4.8-1.1-7.8-1.8-10.8-2.5c9-7.6,13-18.6,19.6-27.7c1.9-2.7,3.6-5.6,5.3-8.4
		c1-1.6,1.8-3,4.2-2.5c2.3,0.5,2.3,2.1,2.6,3.6c2.2,11.7,4.6,23.4,6.4,35.2C360,61.2,362,63.4,362.8,66.2
		C362.8,66.2,362.8,66.2,362.8,66.2z"/>
	<path class="st0" d="M321.6,28c-0.6-2.5-1.1-5-1.7-7.5c-0.6-2.1-1.7-4-3.5-5.3c-3.5-2.5-5.3-1.8-5.8,2.4
		c-1.2,9.9-2.3,19.8-3.8,29.6c-0.7,4.6,1.2,6.8,5.4,8.5c-7.3-0.8-14.6-1.7-21.9-2.5c6.1-0.6,6.6-4.7,7-9.5
		c0.9-10.2,2.5-20.4,3.3-30.6c0.2-1.8,0.6-1.9,1.7-1.8c6.8,0.6,13.5,1.4,20.3,2c1.8,0.2,2.3,1,2,2.6c-0.6,4.1-1.2,8.1-1.9,12.2
		C322.4,27.9,322,28,321.6,28z"/>
	<path class="st0" d="M423.4,87.2c-5.1-1.8-10.2-3.6-14.7-5.2c7.2-11.3,9.8-24.3,14.2-36.6c0.7-1.9-1.2-2.8-2.9-4.3
		c6.8,0.6,12.2,3.7,18.2,5.7c-4.4-0.4-5.6,2.3-6.7,5.6c-3,8.8-6.1,17.5-9.3,26.2C421,81.8,419.8,84.7,423.4,87.2z"/>
	<path class="st0" d="M223.4,20.7c-1.9-4.8-3.6-8.2-4-12c-0.3-3,0.8-5.5,4.3-5.2c3.2,0.2,4.1,2.8,3.4,5.4
		C226.3,12.5,224.9,16,223.4,20.7z"/>
	<path class="st0" d="M297.8,11.3c-6.6,2.4-8.6,7.7-10.6,12.9c-0.4-0.1-0.8-0.3-1.2-0.4c0.4-4.4,0.6-8.8,1.1-13.2
		c0.2-1.6,1.6-1.4,2.7-1.3C292.2,9.5,294.5,9.6,297.8,11.3z"/>
	<path class="st0" d="M62.8,25.1c0.9-1,1-1.4,1.3-1.5c11.4-4.4,12.5-3.6,14.1,10c-2.7-2.4-3.5-5.7-6.1-7.5
		C69.4,24.2,66.4,25,62.8,25.1z"/>
	<path class="st0" d="M398.4,44.1c5.5-5.2,5.8-6.4,1.5-11.4c1.2,0.2,1.9,0.3,2.7,0.5c3.3,0.9,6.6,1.8,10.1,3.3
		C407.2,37.9,403.7,42.7,398.4,44.1z"/>
</g>
</svg>
