<?xml version="1.0" encoding="utf-8"?>
<!-- Generator: Adobe Illustrator 26.0.2, SVG Export Plug-In . SVG Version: 6.00 Build 0)  -->
<svg version="1.1" id="Layer_1" xmlns="http://www.w3.org/2000/svg" xmlns:xlink="http://www.w3.org/1999/xlink" x="0px" y="0px"
	 viewBox="0 0 82.3 29.1" style="enable-background:new 0 0 82.3 29.1;" xml:space="preserve">
<style type="text/css">
	.st0{fill:#2E5959;}
</style>
<g>
	<path class="st0" d="M15.1,16c-3.5,0-6.4,2.9-6.4,6.4s2.9,6.4,6.4,6.4c3.5,0,6.4-2.9,6.4-6.4S18.7,16,15.1,16z M14.4,25.5
		c-1.1-0.3-2-1.2-2.3-2.3h2.3V25.5z M14.4,21.7h-2.3c0.3-1.1,1.2-2,2.3-2.3V21.7z M15.9,19.4c1.1,0.3,2,1.2,2.3,2.3h-2.3V19.4z
		 M15.9,25.5v-2.3h2.3C17.9,24.3,17,25.2,15.9,25.5z"/>
	<path class="st0" d="M80.6,18.8l-0.9-7.7C79.4,9,79,7.7,77.1,6.6l-6.4-3.7c-1.7-0.6-3.5-1.1-5.3-1.5c-1.5-0.3-3-0.5-4.6-0.6
		c-3.1-0.4-6.1-0.5-9.1-0.6c-5.2,0-8.6,0.2-13.5,1.9C33,4.1,28.7,6.4,25.1,8.9L9,11.9c-2.9,0.5-3.8,0.2-5.7,2.6
		c-0.9,1.1-1.5,2.3-1.8,3.6H1.1c-0.4,0-0.2,0.2-0.2,0.6c-0.1,1.6-0.2,4.5,0.5,5.4c0.2,0.3,0.5,0.5,0.8,0.6h4.2
		c-0.2-3.3,0.5-6.1,2.2-8.1c5.8-6.7,17.5-2.6,15.1,9h21.3c-0.8-0.4-1.6-0.9-2.2-1.5l0,0c-0.7-0.7-1.3-1.6-1.7-2.5
		c-0.1-0.3-0.2-0.6-0.3-0.9c0.2,0,0.3,0,0.5,0c0.3,0,0.6,0,0.9-0.1c0.1,0.2,0.1,0.3,0.2,0.4c0.3,0.8,0.8,1.5,1.4,2.1
		c0.6,0.6,1.3,1.1,2.1,1.4c0.8,0.3,1.6,0.5,2.5,0.5c0.9,0,1.7-0.2,2.5-0.5c0.8-0.3,1.5-0.8,2.1-1.4c0.6-0.6,1.1-1.3,1.4-2.1
		c0.3-0.8,0.5-1.6,0.5-2.5c0-0.9-0.2-1.7-0.5-2.5c-0.3-0.8-0.8-1.5-1.4-2.1c-0.6-0.6-1.3-1.1-2.1-1.4c-0.8-0.3-1.6-0.5-2.5-0.5
		c-0.9,0-1.7,0.2-2.5,0.5c-0.1,0-0.1,0.1-0.2,0.1c-0.3-0.4-0.6-0.8-0.9-1.1c0.2-0.1,0.4-0.2,0.6-0.3c0.9-0.4,1.9-0.6,3-0.6
		c1.1,0,2.1,0.2,3,0.6c1,0.4,1.8,1,2.5,1.7c0.7,0.7,1.3,1.6,1.7,2.5c0.4,0.9,0.6,1.9,0.6,3c0,1.1-0.2,2.1-0.6,3
		c-0.4,1-1,1.8-1.7,2.5c-0.6,0.6-1.4,1.1-2.2,1.5H60c-0.4-16.9,18.6-14.6,18-1.1h1.6c1.2,0,1.8-0.2,1.9-1.7v-4.3H80.6z M47.4,15.1
		c0-0.2,0.1-0.4,0.2-0.5s0.3-0.2,0.5-0.2c0.2,0,0.4,0.1,0.5,0.2s0.2,0.3,0.2,0.5v3.6l2.7,1.6c0.2,0.1,0.3,0.3,0.3,0.4
		c0,0.2,0,0.4-0.1,0.5c-0.1,0.2-0.3,0.3-0.4,0.3c-0.2,0-0.4,0-0.5-0.1l-3-1.8c-0.1-0.1-0.2-0.1-0.3-0.2c-0.1-0.1-0.1-0.2-0.1-0.4
		V15.1z M45.3,15.6c0,2.3-1.9,4.2-4.2,4.2c-2.3,0-4.2-1.9-4.2-4.2c0-2.3,1.9-4.2,4.2-4.2C43.4,11.4,45.3,13.3,45.3,15.6z M49.1,10.6
		l-15.3,0.6c0.1-0.4,0.2-0.6,0.2-1c0.1-1.1,0.1-1.3-1-1.5c-1-0.2-2-0.2-3-0.2c7.9-4.2,11-6.9,20.3-6.3L49.1,10.6z M67,9.9l-15.9,0.6
		l1.7-8.2c5.4,0.1,9.5-0.8,13.6,3.5c0.6,0.6,1.1,1.2,1.5,1.9C68.9,9.1,68.6,9.8,67,9.9z"/>
	<path class="st0" d="M42.3,14.2c-0.1,0-0.2,0.1-0.3,0.2L40.6,16l-0.1-0.1c-0.1-0.1-0.3-0.3-0.4-0.4l0,0c0,0-0.1,0-0.1-0.1
		c-0.3-0.2-0.7,0-0.7,0.3c0,0.1,0,0.3,0.1,0.4c0.2,0.2,0.4,0.4,0.6,0.5c0.1,0.1,0.2,0.2,0.3,0.3c0.2,0.2,0.5,0.2,0.7,0l1.9-2
		C43.1,14.7,42.8,14.1,42.3,14.2z"/>
	<path class="st0" d="M69.1,16c-3.5,0-6.4,2.9-6.4,6.4s2.9,6.4,6.4,6.4s6.4-2.9,6.4-6.4S72.6,16,69.1,16z M68.3,19.4v2.3H66
		C66.3,20.5,67.2,19.6,68.3,19.4z M68.3,25.5c-1.1-0.3-2-1.2-2.3-2.3h2.3V25.5z M69.8,25.5v-2.3h2.3C71.8,24.3,71,25.2,69.8,25.5z
		 M69.8,21.7v-2.3c1.1,0.3,2,1.2,2.3,2.3H69.8z"/>
</g>
</svg>
