<?xml version="1.0" encoding="utf-8"?>
<!-- Generator: Adobe Illustrator 23.0.2, SVG Export Plug-In . SVG Version: 6.00 Build 0)  -->
<svg version="1.1" id="Layer_1" xmlns="http://www.w3.org/2000/svg" xmlns:xlink="http://www.w3.org/1999/xlink" x="0px" y="0px"
	 viewBox="0 0 273.7 322" style="enable-background:new 0 0 273.7 322;" xml:space="preserve">
<style type="text/css">
	.st0{fill:#009764;}
	.st1{fill:#FFDD00;}
	.st2{fill:#009448;}
</style>
<g>
	<path class="st0" d="M143.4,262.7h-6.4v5.4h6.4c0.9,0,1.7-0.2,2.2-0.7c0.5-0.5,0.8-1.1,0.8-2c0-0.8-0.3-1.4-0.8-1.9
		C145.1,263,144.4,262.7,143.4,262.7z"/>
	<path class="st0" d="M175.7,253.2c-2.1,0-3.8,0.7-5.1,2.2c-1.3,1.4-1.9,3.3-1.9,5.5s0.6,4,1.9,5.5c1.3,1.4,3,2.2,5.1,2.2
		c2.1,0,3.8-0.7,5.1-2.2c1.3-1.4,1.9-3.3,1.9-5.5s-0.6-4-1.9-5.5C179.5,253.9,177.8,253.2,175.7,253.2z"/>
	<path class="st0" d="M170.6,130.9l-4,5.5c-5.7,7.7-8.6,16.9-11.7,37.1c-3.1,18.9-8,29.7-15.7,33.9c7.9-4.1,12.8-15,15.9-34
		c3.1-20.2,6-29.4,11.7-37.1l4-5.5l-4.8,0.5c-5.1,0.6-10.9,2.7-16.7,5.8c5.8-3,11.5-5.1,16.5-5.7L170.6,130.9z"/>
	<path class="st0" d="M116.5,255c-1.6,0-3,0.6-4,1.7c-1,1.1-1.5,2.5-1.5,4.1c0,1.6,0.5,3,1.5,4.1c1,1.1,2.4,1.7,4,1.7
		c1.6,0,3-0.6,4-1.7c1-1.1,1.5-2.5,1.5-4.1c0-1.6-0.5-3-1.5-4.1C119.5,255.6,118.2,255,116.5,255z"/>
	<path class="st0" d="M145.2,257.8c0.5-0.5,0.7-1.1,0.7-1.8c0-0.7-0.2-1.3-0.7-1.8s-1.2-0.7-2-0.7h-6.2v5h6.2
		C144.1,258.5,144.7,258.3,145.2,257.8z"/>
	<path class="st0" d="M204.1,221.2c-4.3,0-7.7,3.6-7.7,7.8c0,4.3,3.4,7.8,7.7,7.8c4.3,0,7.7-3.6,7.7-7.8
		C211.8,224.7,208.4,221.2,204.1,221.2z M207.8,232.3c0.1,0.3,0.2,0.5,0.2,0.7c0,0.7-0.6,1.1-1.2,1.1c-0.5,0-1-0.2-1.3-0.8l-1.6-3.1
		H203v2.1c0,1-0.4,1.6-1.3,1.6c-0.9,0-1.4-0.6-1.4-1.6v-7c0-1,0.6-1.6,1.6-1.6h2.6c2.3,0,4,1,4,3.1c0,1.6-1,2.3-2,2.7L207.8,232.3z"
		/>
	<path class="st0" d="M150.4,25.8c-13.3-5.3-24.5-4.1-34.4,3.7C50.8,80.7,17,145.8,25.6,203.7c9.1,61.3,66.3,103.7,127.6,94.6
		c61.3-9.1,103.7-66.3,94.6-127.6C240.6,121.4,192,42.3,150.4,25.8z M143.3,76c6.6,0.2,16.4,8.6,25.7,21c-10.7,2-21,6-30.2,11.9
		c-3-1.7-6-3.3-9.1-4.9c-5-2.5-10.6-4.9-16.2-6.9C124.1,84.2,135.3,75.7,143.3,76z M62.1,243.2c0.1,0.2,0.3,0.4,0.4,0.7
		c0,0.1,0,0.2,0.1,0.3C62.4,243.8,62.3,243.5,62.1,243.2z M69.7,142.2c0.9-21.9,6.4-39.4,13.8-43.7c1.4-0.8,3.6-1.3,6.6-1.3
		c8.1,0,21.4,3.4,37.4,11.4c2.3,1.1,4.5,2.3,6.6,3.5c-0.2,0.1-0.3,0.2-0.5,0.3c-18.3,13.7-30.1,33.6-33.3,56.2s2.5,45.1,16.2,63.3
		c1.5,2,3.1,3.9,4.7,5.7c0.1,0.2,0.2,0.4,0.3,0.5c-15.3-5.4-29.8-17.2-39.5-34C73.2,189.5,68.7,166.3,69.7,142.2z M101.3,264.1
		c0,2.9-0.8,5.1-2.4,6.5c-1.6,1.4-3.8,2.2-6.6,2.2c-2.7,0-4.8-0.6-6.5-1.9l2.9-5.4c1,0.7,2,1,3,1c0.8,0,1.4-0.2,1.9-0.7
		c0.5-0.5,0.7-1.1,0.7-1.9v-14.8h7V264.1z M125.6,269.5c-2.4,2.2-5.4,3.4-9.1,3.4c-3.6,0-6.6-1.1-9.1-3.4c-2.4-2.2-3.6-5.1-3.6-8.6
		c0-3.5,1.2-6.4,3.6-8.6c2.4-2.2,5.4-3.4,9.1-3.4c3.6,0,6.6,1.1,9.1,3.4c2.4,2.2,3.6,5.1,3.6,8.6C129.2,264.3,128,267.2,125.6,269.5
		z M149.7,270.6c-1.2,1.2-2.8,1.8-5,1.8h-12.6v-23.2h12.2c2.1,0,3.7,0.6,4.9,1.7c1.2,1.1,1.8,2.5,1.8,4.2c0,1.4-0.4,2.6-1.1,3.5
		c-0.8,1-1.7,1.5-2.9,1.8c1.3,0.2,2.3,0.8,3.2,1.9c0.9,1.1,1.3,2.4,1.3,3.8C151.5,267.9,150.9,269.4,149.7,270.6z M142.5,240.1
		c-0.8-0.5-1.6-1-2.6-1.6c-9.9-5.9-16-16.1-18.1-30.2c-1.5-9.7,1.4-31,4.8-35.6c0.1-0.1,0.1-0.1,0.1-0.1c-0.1,0-0.2,0.1-0.3,0.2
		c-3.4,4.6-6.3,25.9-4.8,35.6c2.2,14.1,8.3,24.3,18.1,30.2c0.8,0.5,1.5,0.9,2.2,1.3c-1.6,0-3.3-0.6-5.3-1.8c-4.5-2.8-9.1-5.5-13.1-9
		c-4.7-4.1-8.5-9.1-11.4-14.5c-0.1-0.1-0.2-0.3-0.2-0.4c0-0.1-0.1-0.1-0.1-0.2c0,0,0,0,0-0.1c-6.3-13.8-8.6-29.2-6.4-44.6
		c3-21.2,14.1-39.9,31.3-52.7c13.9-10.4,30.8-16,48-16c1.1,0,2.3,0,3.4,0.1c27.9,41.1,18.7,96.3-21.2,126.2
		C159.4,232.6,151.2,237,142.5,240.1z M160.1,272.4h-4.9v-23.2h4.9V272.4z M184.4,269.4c-2.3,2.2-5.2,3.4-8.7,3.4
		c-3.5,0-6.4-1.1-8.7-3.4c-2.3-2.3-3.4-5.1-3.4-8.6s1.1-6.3,3.4-8.6s5.2-3.4,8.7-3.4c3.5,0,6.4,1.1,8.7,3.4c2.3,2.2,3.4,5.1,3.4,8.6
		C187.8,264.3,186.7,267.2,184.4,269.4z M204.1,238.3c-5.2,0-9.3-4.1-9.3-9.3c0-5.2,4.1-9.3,9.3-9.3s9.3,4.1,9.3,9.3
		C213.4,234.2,209.3,238.3,204.1,238.3z"/>
	<path class="st0" d="M204.2,225.8H203v2.7h1.1c1.3,0,1.7-0.5,1.7-1.3C205.7,226.4,205.3,225.8,204.2,225.8z"/>
	<g>
		<path class="st1" d="M151.2,19.4c-13.9-5.5-25.7-4.3-36,3.9C47,76.9,11.6,145.1,20.6,205.6c9.5,64.1,69.4,108.6,133.6,99
			c64.1-9.5,108.6-69.4,99-133.6C245.6,119.5,194.7,36.7,151.2,19.4z M153.3,298.3C92,307.4,34.7,264.9,25.6,203.7
			c-8.6-57.9,25.2-123,90.3-174.2c9.9-7.8,21.2-9,34.4-3.7c41.6,16.5,90.2,95.7,97.5,144.9C257,231.9,214.5,289.2,153.3,298.3z"/>
	</g>
	<path class="st0" d="M264,169.5c-8.1-54.8-61-141.1-108.8-160.2c-9.1-3.6-18-4.8-26.2-3.6c-7.4,1.1-14.3,4.1-20.5,9
		c-33.7,26.5-60.6,57.4-77.8,89.3C11.9,138.9,4.9,173.6,9.9,207.2c10.4,70.1,75.9,118.6,145.9,108.2
		C225.9,305,274.4,239.5,264,169.5z M154.2,304.6c-64.1,9.5-124-34.9-133.6-99c-9-60.6,26.3-128.7,94.5-182.3
		c10.4-8.1,22.1-9.4,36-3.9c43.5,17.3,94.4,100.1,102.1,151.7C262.8,235.2,218.3,295.1,154.2,304.6z"/>
	<g>
		<path class="st1" d="M94.3,264c0,0.8-0.2,1.4-0.7,1.9c-0.5,0.5-1.1,0.7-1.9,0.7c-1,0-2-0.3-3-1l-2.9,5.4c1.6,1.3,3.8,1.9,6.5,1.9
			c2.8,0,5-0.7,6.6-2.2c1.6-1.4,2.4-3.6,2.4-6.5v-14.9h-7V264z"/>
	</g>
	<g>
		<g>
			<path class="st1" d="M116.5,248.8c-3.6,0-6.6,1.1-9.1,3.4c-2.4,2.2-3.6,5.1-3.6,8.6c0,3.5,1.2,6.4,3.6,8.6
				c2.4,2.2,5.4,3.4,9.1,3.4c3.6,0,6.6-1.1,9.1-3.4c2.4-2.2,3.6-5.1,3.6-8.6c0-3.5-1.2-6.4-3.6-8.6
				C123.1,249.9,120.1,248.8,116.5,248.8z M120.5,265c-1,1.1-2.4,1.7-4,1.7c-1.6,0-3-0.6-4-1.7c-1-1.1-1.5-2.5-1.5-4.1
				c0-1.6,0.5-3,1.5-4.1c1-1.1,2.4-1.7,4-1.7c1.6,0,3,0.6,4,1.7c1,1.1,1.5,2.5,1.5,4.1C122.1,262.5,121.6,263.8,120.5,265z"/>
		</g>
	</g>
	<g>
		<path class="st1" d="M147,260.4c1.1-0.2,2.1-0.8,2.9-1.8c0.8-0.9,1.1-2.1,1.1-3.5c0-1.6-0.6-3-1.8-4.2c-1.2-1.1-2.8-1.7-4.9-1.7
			h-12.2v23.2h12.6c2.1,0,3.8-0.6,5-1.8c1.2-1.2,1.8-2.7,1.8-4.5c0-1.4-0.4-2.7-1.3-3.8C149.3,261.3,148.3,260.6,147,260.4z
			 M137.1,253.4h6.2c0.8,0,1.5,0.2,2,0.7s0.7,1.1,0.7,1.8c0,0.7-0.2,1.3-0.7,1.8c-0.5,0.5-1.1,0.7-2,0.7h-6.2V253.4z M145.6,267.4
			c-0.5,0.5-1.3,0.7-2.2,0.7h-6.4v-5.4h6.4c0.9,0,1.7,0.3,2.2,0.8c0.5,0.5,0.8,1.2,0.8,1.9C146.4,266.3,146.1,266.9,145.6,267.4z"/>
	</g>
	<g>
		<rect x="155.2" y="249.2" class="st1" width="4.9" height="23.2"/>
	</g>
	<g>
		<path class="st1" d="M175.7,248.8c-3.5,0-6.4,1.1-8.7,3.4s-3.4,5.1-3.4,8.6s1.1,6.3,3.4,8.6c2.3,2.3,5.2,3.4,8.7,3.4
			c3.5,0,6.4-1.1,8.7-3.4c2.3-2.2,3.4-5.1,3.4-8.6c0-3.5-1.1-6.4-3.4-8.6C182.1,249.9,179.2,248.8,175.7,248.8z M180.8,266.3
			c-1.3,1.4-3,2.2-5.1,2.2c-2.1,0-3.8-0.7-5.1-2.2c-1.3-1.4-1.9-3.3-1.9-5.5s0.6-4,1.9-5.5c1.3-1.4,3-2.2,5.1-2.2
			c2.1,0,3.8,0.7,5.1,2.2c1.3,1.4,1.9,3.3,1.9,5.5S182.1,264.8,180.8,266.3z"/>
	</g>
	<g>
		<path class="st1" d="M138.9,108.8c9.2-5.9,19.5-9.9,30.2-11.9c-9.4-12.4-19.1-20.7-25.7-21c-8.1-0.3-19.2,8.3-29.8,21.1
			c5.6,2,11.2,4.4,16.2,6.9C132.8,105.5,135.9,107.1,138.9,108.8z"/>
	</g>
	<g>
		<path class="st1" d="M121.4,238.3c-0.1-0.2-0.2-0.4-0.3-0.5c-1.6-1.8-3.2-3.8-4.7-5.7c-13.7-18.3-19.4-40.7-16.2-63.3
			s15.1-42.5,33.3-56.2c0.2-0.1,0.3-0.2,0.5-0.3c-2.2-1.2-4.4-2.4-6.6-3.5c-16-7.9-29.3-11.4-37.4-11.4c-2.9,0-5.1,0.4-6.6,1.3
			c-7.3,4.3-12.8,21.8-13.8,43.7c-1,24,3.6,47.3,12.2,62.1C91.6,221.1,106.1,232.9,121.4,238.3z"/>
	</g>
	<g>
		<path class="st1" d="M188.1,100.8c-1.1,0-2.3-0.1-3.4-0.1c-17.3,0-34.2,5.6-48,16c-17.1,12.8-28.2,31.6-31.3,52.7
			c-2.2,15.4,0.1,30.8,6.4,44.6c-1.9-8.6-2.5-17.2-1.3-24.3c1.6-9.8,7.5-23.8,13.3-31.7c6-8.2,15.7-16,25.5-21.1
			c5.8-3.1,11.7-5.1,16.7-5.8l4.8-0.5l-4,5.5c-5.7,7.7-8.6,16.9-11.7,37.1c-3.1,19-8,29.8-15.9,34c-2.6,1.4-5.5,2.1-8.8,2l-5.3-0.1
			l-0.7-7.6c-0.3-4.3,0.4-12.9,1.8-19.4c1.1-5.7,1.4-9.7,0.6-9.6c0,0-0.1,0.1-0.1,0.1c-3.4,4.6-6.3,25.9-4.8,35.6
			c2.2,14.1,8.3,24.3,18.1,30.2c1,0.6,1.8,1.1,2.6,1.6c8.7-3.1,16.9-7.5,24.4-13.1C206.8,197.1,216,141.9,188.1,100.8z"/>
	</g>
	<path class="st0" d="M126.1,182.2c-1.3,6.5-2.1,15.1-1.8,19.4l0.7,7.6l5.3,0.1c3.3,0,6.2-0.6,8.8-2c7.8-4.2,12.7-15,15.7-33.9
		c3.1-20.2,6-29.4,11.7-37.1l4-5.5l-4.8,0.5c-5,0.6-10.8,2.7-16.5,5.7c-9.8,5.1-19.5,12.9-25.5,21.1c-5.8,7.9-11.7,21.9-13.3,31.7
		c-1.2,7.1-0.6,15.7,1.3,24.3c0,0,0,0,0,0.1c0,0.1,0.1,0.1,0.1,0.2c0.1,0.1,0.2,0.3,0.2,0.4c3,5.4,6.8,10.4,11.4,14.5
		c4,3.5,8.6,6.3,13.1,9c2,1.2,3.7,1.7,5.3,1.8c-0.7-0.4-1.4-0.9-2.2-1.3c-9.9-5.9-16-16.1-18.1-30.2c-1.5-9.7,1.4-31,4.8-35.6
		c0.1-0.1,0.2-0.2,0.3-0.2C127.5,172.5,127.2,176.5,126.1,182.2z"/>
	<g>
		<path class="st1" d="M208.5,227c0-2.1-1.7-3.1-4-3.1h-2.6c-1,0-1.6,0.6-1.6,1.6v7c0,1,0.5,1.6,1.4,1.6c0.9,0,1.3-0.6,1.3-1.6v-2.1
			h0.9l1.6,3.1c0.3,0.5,0.8,0.8,1.3,0.8c0.6,0,1.2-0.4,1.2-1.1c0-0.2-0.1-0.5-0.2-0.7l-1.3-2.6C207.5,229.3,208.5,228.5,208.5,227z
			 M204.1,228.5H203v-2.7h1.3c1.1,0,1.5,0.6,1.5,1.3C205.7,228,205.3,228.5,204.1,228.5z"/>
	</g>
	<g>
		<path class="st1" d="M204.1,219.7c-5.2,0-9.3,4.1-9.3,9.3c0,5.2,4.1,9.3,9.3,9.3s9.3-4.1,9.3-9.3
			C213.4,223.8,209.3,219.7,204.1,219.7z M204.1,236.8c-4.3,0-7.7-3.6-7.7-7.8c0-4.3,3.4-7.8,7.7-7.8c4.3,0,7.7,3.6,7.7,7.8
			C211.8,233.3,208.4,236.8,204.1,236.8z"/>
	</g>
	<path class="st2" d="M62.1,243.2c0.1,0.3,0.3,0.7,0.4,1c0-0.1,0-0.2-0.1-0.3C62.4,243.6,62.2,243.4,62.1,243.2z"/>
</g>
</svg>
