<?xml version="1.0" encoding="utf-8"?>
<!-- Generator: Adobe Illustrator 26.0.2, SVG Export Plug-In . SVG Version: 6.00 Build 0)  -->
<svg version="1.1" id="Layer_1" xmlns="http://www.w3.org/2000/svg" xmlns:xlink="http://www.w3.org/1999/xlink" x="0px" y="0px"
	 viewBox="0 0 401 419" style="enable-background:new 0 0 401 419;" xml:space="preserve">
<style type="text/css">
	.st0{fill:#FEC010;}
</style>
<g>
	<path d="M383.8,6.8h-364c-6.4,0-11.5,5.1-11.5,11.5v386c0,6.4,5.1,11.5,11.5,11.5h364c6.4,0,11.5-5.1,11.5-11.5v-386
		C395.2,11.9,390.1,6.8,383.8,6.8z M322.4,119.6c0-1.3,1.3-3.5,2.3-3.8c3.1-0.7,2.8,1.9,2.8,3.9c-0.1,5.7,0,11.3-0.3,17
		c-0.2,2.9,0.9,3.8,3.7,3.8c7.3-0.1,14.6,0,22.8,0c0-7,0.1-13.9-0.1-20.8c-0.1-3.6,1.5-4.3,4.8-3.5c0,17.7,0,35.2,0,53.2
		c-1.7,0-3,0-4.1,0c-0.3-0.3-0.5-0.5-0.5-0.6c0-7.8,0-15.6,0-23.6c-9,0-17.5,0-26.4,0c0,8.2,0,15.9,0,23.8c-3.5,1.3-5.2,0.7-5.2-3.2
		C322.3,150.2,322.2,134.9,322.4,119.6z M288.9,118.8c0-0.9,2.1-2.5,3.3-2.5c7.5-0.4,15-0.6,22.4-0.5c1.3,0,2.5,1.9,3.8,3
		c-0.3,0.7-0.6,1.4-0.9,2.1c-6.3,0-12.5,0.2-18.8-0.1c-3.9-0.2-5,1.2-4.7,4.9c0.3,2.6,0,5.3,0,8.6c6.3,0,12.2,0,18.1,0
		c0.3,0.6,0.6,1.2,0.9,1.8c-1.2,0.9-2.4,2.6-3.6,2.7c-4.9,0.3-9.9,0.1-15.1,0.1c0,4.7,0,8.7,0,13.2c6.8,0,13.3,0.1,19.7,0
		c3,0,4.5,0.7,3.1,4.2c-9.2,0-18.5,0-28.4,0C288.8,143.6,288.7,131.2,288.9,118.8z M307.1,166.3c-1.2,1.1-2.2,2-3.2,3
		c-4.1-3.2-4.1-3.2,0-6.6C304.9,163.9,305.8,164.8,307.1,166.3z M296.4,197.6c0.1,8.9-7.9,16.8-16.9,16.8c-9.1,0-16.7-7.8-16.7-16.9
		c0-9.1,7.6-16.4,17.1-16.4C288.7,181,296.3,188.5,296.4,197.6z M283.8,127.9c-2.8,1.2-4.6,0.8-6.2-2.3c-2.4-4.7-7.3-6.4-12.3-5
		c-4.5,1.3-7,4.4-7.3,9c-0.3,4.3,3.3,8.1,8.6,9.7c2.7,0.8,5.5,1.3,8.2,2.2c5.8,1.9,9.6,7.1,9.8,13.1c0.2,6.2-3.1,11.5-8.7,13.9
		c-6.3,2.7-14.8,1.4-18.9-3.5c-1.8-2.1-2.6-4.9-4-7.7c3.9-1.1,5.6-0.9,7,2.2c2.2,4.7,6.8,6.2,12.3,4.9c4.4-1.1,7.5-4.6,7.3-8.8
		c-0.2-5.2-3.2-8.2-8-9.6c-3.3-1-6.8-1.6-10-2.9c-6.8-2.7-9.8-9.3-7.9-16.8c1.7-7,8.6-11.4,16.9-10.8
		C278,116,283.2,120.7,283.8,127.9z M233.8,205.1c0,6.4,0,12.5,0,18.6c-0.4,0.4-0.8,0.7-1.2,1.1c-1-1-2.8-1.9-2.8-2.9
		c-0.2-13.3-0.1-26.6-0.1-39.8c0.5-0.3,1-0.6,1.5-0.8c0.9,1.1,2.4,2.2,2.5,3.3c0.3,5.3,0.1,10.6,0.1,16.4c6.8,0,13.6,0,21.1,0
		c0-5.2-0.1-10.4,0.1-15.7c0.1-1.2,1.4-2.4,2.1-3.6c0.7,1.3,1.9,2.5,1.9,3.8c0.1,11.8-0.1,23.6-0.2,35.4c0,2.5-0.3,4.4-4.1,3.1
		c0-6.4,0-12.5,0-18.9C247.6,205.1,240.9,205.1,233.8,205.1z M214.3,205.7c-2.7-0.8-5.5-1.3-8.1-2.4c-5.3-2.3-7.4-7.5-5.8-13.3
		c1.6-5.7,6.8-9,13.5-8.6c6,0.4,9.9,4,9.6,10.8c-1.5-1.2-3.2-2.2-4.3-3.6c-2.7-3.4-6.4-4.3-9.8-2.7c-2.4,1.2-4.9,4.2-5.4,6.8
		c-0.7,4,2.3,6.6,6.2,7.8c2.1,0.6,4.3,0.9,6.2,1.8c2.1,0.9,4.3,1.9,5.8,3.5c3.3,3.3,3.6,9.3,1.2,13.5c-2.4,4.3-8.2,6.7-13.4,5.6
		c-6.1-1.2-8.8-4-8.6-11c1.3,1,3,1.7,3.8,3c2.6,4,6,4.9,10.3,3.7c3.5-0.9,5.4-3.3,5.5-6.8C221.2,209.3,218.4,206.9,214.3,205.7z
		 M223,148.6c-6.3-7.8-12.1-14.9-17.9-22.1c-0.4,0.1-0.7,0.1-1.1,0.2c0,14,0,28.1,0,42.3c-2.1,0-3.4,0-4.9,0c-0.1-1.4-0.4-2.7-0.4-4
		c0-15,0-30,0.2-45c0-1.5,1.2-3,1.8-4.5c1.5,0.8,3.5,1.2,4.5,2.4c6,7.4,11.7,14.9,17.9,22.8c6-7.7,11.6-15,17.4-22.2
		c1.3-1.6,3.5-2.5,6.1-4.3c0.3,2.5,0.5,3.5,0.5,4.5c0.2,15.3,0.4,30.6,0.3,46c0,1.5-1.5,3-2.3,4.5c-0.9-1.4-2.6-2.9-2.6-4.3
		c-0.2-11-0.2-22-0.2-32.9c0-1.8,0-3.6,0-5.4c-0.4-0.1-0.7-0.2-1.1-0.3C235.3,133.5,229.5,140.6,223,148.6z M146,221.8
		c0,1.2-1.2,2.3-1.8,3.4c-0.8-1.2-2.2-2.3-2.2-3.5c-0.2-12-0.2-24,0-35.9c0-1.3,1.2-2.6,1.8-4c0.6,0.2,1.3,0.4,1.9,0.6
		c0,6,0,12,0,19c6.7-7.1,12.6-13.4,18.7-19.7c0.4-0.4,1.5,0,3.2,0.1c-5.9,7.1-11.2,13.5-16.1,19.4c4.2,4.1,8.5,7.6,12,11.7
		c5.2,6,11.4,8.8,19.3,8.5c4.8-0.2,9.6,0,15.1,1.1c-1,0.9-1.9,2.5-2.9,2.5c-6.5,0.1-13,0.3-19.4-0.4c-7.4-0.8-12.4-5.9-17.2-11.1
		c-3.1-3.4-6.3-6.8-12.2-7.3C146.1,211.7,146.2,216.7,146,221.8z M161.8,145.7c0,2.8,0,5.7,0.5,8.4c1.3,7.4,6.1,11.2,13.1,10.9
		c7.2-0.3,11.9-4.9,12.2-12.5c0.3-7.5,0.1-14.9,0.1-22.7c1.7-0.1,3.1-0.3,4.4-0.4c0.4,0.6,0.8,1.1,0.8,1.5c0,8.1,0.3,16.3-0.3,24.4
		c-0.7,9.6-8,15.2-18.3,15c-9.9-0.2-16.7-6.3-17.6-15.5c-0.1-1.2-0.1-2.3-0.1-3.5c0-7,0-14,0-21.5c2,0,3.4,0,5.2,0
		C161.8,135.2,161.7,140.4,161.8,145.7z M189.2,196.4c1.1,0.1,2.1,0.9,3.2,1.4c-1.1,0.7-2.1,1.8-3.2,1.9c-3.6,0.2-7.3,0.1-11.2,0.1
		c0,3.6,0,6.7,0,10.3c6,0,12,0,18.1,0c0.3,0.5,0.6,1,0.9,1.5c-1,0.9-2,2.5-3,2.5c-6.6,0.2-13.2,0.1-20.1,0.1c0-11.2,0-21.4,0-32.6
		c6.8,0,13.5-0.1,20.1,0.1c1,0,2,1.4,3,2.2c-0.3,0.5-0.5,1-0.8,1.5c-5.9,0-11.9,0-18.2,0c0,3.7,0,6.9,0,10.9
		C181.7,196.4,185.5,196.3,189.2,196.4z M152.9,90.1c0-1.5,0-2.8,0-4.3c35.9,0,71.6,0,107.5,0c0,1.4,0,2.7,0,4.3
		C224.8,90.1,189.1,90.1,152.9,90.1z M172.3,74.5c0-4.4,3.3-7.9,7.6-8.1c4.5-0.2,8.4,3.5,8.5,7.9c0.1,4.2-3.5,7.9-7.8,8.1
		C176,82.6,172.4,79.2,172.3,74.5z M232.7,74.3c0.1-4.3,3.7-7.8,8-7.8c4.7,0,8.1,3.4,8,8.2c-0.1,4.5-3.3,7.8-7.8,7.8
		C236.4,82.5,232.6,78.8,232.7,74.3z M276.4,90.1c-3.7,0-7.4,0-11.5,0c0-1.6,0-2.8,0-4.3c3.9,0,7.6,0,11.5,0
		C276.4,87.2,276.4,88.5,276.4,90.1z M153.6,60.5c2.8-3.3,2.4-8.8,8.4-10.7c2.2-0.7,3.4-4.5,5.4-7.4c-5.5-0.5-10.2-1-14.8-1.6
		c-0.1,0,0-1.8,0-3.4c2.5,0,5,0.1,7.4,0c5-0.2,10.3,1.1,14.8-2.5c0.6-0.5,1.6-0.4,2.4-0.4c11.8,0,23.6,0,35.8,0c0,5,0,9.7,0,15
		c-9.9,0-19.6,0.1-29.4,0c-3.2,0-4.8,0.8-3.3,4.9c4,0,8.1,0,12.2,0c13.3,0,26.7-0.1,40,0c3.1,0,5-0.6,3.6-4.8c-5.9,0-11.7,0-17.9,0
		c0-5,0-9.7,0-14.7c8.9-1.4,17.3-1.2,22.7,7.7c4.3,7.1,10.4,10.3,18.7,8.8c1.9-0.4,4-0.1,6,0c5.7,0.3,8.8,3.7,8.8,9.6
		c-3.9,3.3-11.1-2.8-14.6,5.3c4.8,0,8.5,0,12.4,0c-1.6,9.6-2.5,10-18.2,9.1c-1-7.7-4.8-13.3-13.3-13.7c-6.6-0.3-10.3,3.8-13.4,13.7
		c-11.2,0-22.5,0-33.8,0c-2.4-10.3-6.1-14.4-13.1-14.4c-6.8-0.1-11.1,3.8-13.4,12.2c-11.9,1.1-14.7-0.1-15.3-6.6c3.5,0,6.9,0,10.9,0
		C163.2,58.4,156.4,63.3,153.6,60.5z M144.9,37.6c1.6,0,2.9,0,4.4,0c0,1.5,0,2.9,0,4.5c-1.5,0-2.9,0-4.4,0
		C144.9,40.7,144.9,39.4,144.9,37.6z M127.9,57.8c6.7,0,13.4,0,20.4,0c0,1.4,0,2.7,0,4.4c-6.8,0-13.5,0-20.4,0
		C127.9,60.7,127.9,59.4,127.9,57.8z M148.3,85.7c0,1.5,0,2.9,0,4.5c-4.8,0-9.5,0-14.4,0c0-1.5,0-2.8,0-4.5
		C138.9,85.7,143.4,85.7,148.3,85.7z M129.5,115.5c11.2-1.2,21.5,5,24.1,15.7c-2.5-1.4-4.6-2-5.8-3.3c-6.9-7.7-14.9-9.7-23.6-5.6
		c-7.8,3.7-12.8,13-11,22c0.8,4.3,2.1,8.8,4.5,12.4c6.8,10.5,21.5,10.7,29.5,1.2c1.3-1.6,3.5-2.3,5.6-3
		c-2.1,10.5-12.3,16.2-24.5,14.5c-11.9-1.7-20.8-13.4-20.6-27.4C107.9,128.7,117.6,116.7,129.5,115.5z M96.9,147.2
		c1.2,3,1,4.5-2.6,4.4c-4.9-0.2-9.8,0-14.9,0c0,4.8,0,8.6,0,12.9c7.7,0,15.1,0,22.9,0c0,1.9,0,3.2,0,4.7c-9.2,0-18.3,0-27.9,0
		c0-13.3,0-26.3,0-39.7c9.5,0,18.6,0,27.7,0c1.1,2.9,0.6,4.5-2.8,4.4c-6.5-0.1-12.9,0-19.8,0c0,4.7,0,8.8,0,13.4
		C85.6,147.2,91.2,147.2,96.9,147.2z M94.9,182c0.5-0.2,1.1-0.5,1.6-0.7c0.7,1.4,2,2.7,2.1,4.1c0.2,9.2,0.1,18.3,0.1,27.5
		c0,1.6,0,3.3,0,4.3c5.3,0.5,10.2,0.3,14.9,1.4c8.2,2,16.2,3.3,24.5-0.5c1.1,4.7-2,5.8-4.5,6c-4.7,0.5-9.7,0.8-14.3-0.1
		c-8.1-1.5-16-5.5-24.3,1.5C94.9,210.1,94.9,196.1,94.9,182z M111.6,209.6c2.9-8.4,6-16.9,9.3-25.2c0.4-1.1,1.9-2.5,2.9-2.6
		c1-0.1,2.6,1.3,3,2.4c3.8,9.5,7.3,19.2,10.9,28.7c-0.5,0.5-1,1-1.5,1.5c-1.1-1.2-2.5-2.2-3.4-3.6c-1.3-2-1.8-5.7-3.3-6.2
		c-3.4-1-7.4-1-10.8,0c-1.6,0.4-2.2,4-3.6,6c-0.9,1.3-2.2,2.2-3.3,3.3C111.7,212.5,111.2,210.9,111.6,209.6z M45,116
		c9.4,7.2,19,4.8,28.8,1.7c9.6-3,19.2-3.6,28.4,1.9c2.8,1.7,4.4,3.4,2.7,7.2c-13.8-10.4-27.9-4.7-41.9-0.9c-1,0.3-2.1,2.7-2.1,4.1
		c-0.2,11.8-0.2,23.6-0.2,35.5c0,2.9-0.6,4.5-4.7,3.4c0-9.4,0-18.8,0-28.3c0-3.3,0-6.7,0.3-10c0.3-3.4-0.8-4.9-4.3-5.8
		C46,123.4,44.7,121.4,45,116z M54.7,200.6c-4.6-10.7-4.3-14.9,1-18c4-2.3,9.1-1.3,11.6,2.3c3.6,5.1,2.1,9-6.6,17
		c5.2,7.2,10.4,14.5,15.9,22.2c-6.8,1.5-7-5.2-10.8-7.6c-2.4,5.6-6.1,9.4-12.9,8c-4.4-0.9-7-4-7.9-8.1
		C43.3,208.3,48.3,203.8,54.7,200.6z M93.2,386.4c-4.7,0.2-8.4,0.4-12.9,0.6c0-40.7,0-80.9,0-121.4c-4.3-0.9-8.3-1.4-12-2.6
		c-4.6-1.5-9.1-3.2-13.3-5.5c-10.7-5.6-11.8-8.2-9.7-20.8c0.4,0.1,1-0.1,1.3,0.2c20.9,15.5,43.9,16,68,10
		c16.4-4.1,32.9-8.3,49.6-10.9c23-3.5,44.1,3.1,63.7,15c4,2.5,2.4,6.1,2.7,9.4c0.1,2.1-0.3,4.2-0.6,7.3
		c-12.9-8.8-26.2-13.9-40.3-16.4c-15.7-2.8-31.2-1-46.5,2.7c-16.3,4-32.4,8.3-49.9,12.7C93.2,305.8,93.2,345.8,93.2,386.4z
		 M220.4,388c-1.7-0.2-4.1-2.1-4.8-3.7c-3.6-8.8-6.8-17.7-9.8-26.6c-1.1-3.1-2.8-4.1-5.8-4.1c-12,0.1-24,0.1-36,0
		c-2.9,0-4.5,1.1-5.5,3.9c-3,8.6-6.4,17.1-9.2,25.8c-1.3,3.9-3.2,5.4-7.3,4.7c-2.6-0.5-5.3-0.5-8.7-0.9c0.6-2.2,0.8-3.8,1.4-5.3
		c12.7-34.2,25.5-68.5,38.2-102.7c1.2-3.3,2.7-5.1,6.4-4.7c2.3,0.3,4.8-0.2,7,0.3c1.6,0.4,3.7,1.7,4.2,3.1
		c13.1,34.8,26.1,69.7,39,104.6c0.5,1.4,0.9,2.8,1.4,4.6C227.2,387.4,223.7,388.3,220.4,388z M293.2,315.6
		c13,22.3,25.7,44.6,38.6,67c0.7,1.3,1.3,2.6,2,3.9c-8.4,3.6-15,1.4-19-6c-9.8-17.6-19.7-35.1-29.5-52.6c-0.4-0.7-0.9-1.3-1.7-2.6
		c-1,1.5-1.8,2.6-2.4,3.8c-9.9,17.5-20,34.9-29.4,52.6c-2.5,4.8-5.6,6.5-10.6,6.1c-2.6-0.2-5.2-0.2-8.4-0.4c1.1-2.2,1.7-3.7,2.5-5.1
		c12.9-22.5,25.8-45,38.8-67.4c1.5-2.5,1.4-4.2,0-6.7c-12.9-22.1-25.6-44.3-38.4-66.5c-0.8-1.4-1.6-2.9-3-5.4
		c5.5,0,10.1-0.3,14.7,0.2c1.3,0.1,2.6,2.3,3.4,3.8c9.8,17.4,19.5,34.8,29.3,52.2c1,1.7,2.1,3.4,3.4,5.6c1-1.5,1.8-2.7,2.5-3.9
		c10.1-17.8,20.2-35.5,30.1-53.4c1.8-3.3,3.8-5,7.8-4.5c3.1,0.4,6.3,0.1,10.4,0.1c-1.2,2.2-2,3.9-2.9,5.5
		c-12.7,22-25.3,44.1-38.1,66.1C291.4,310.9,291.6,312.9,293.2,315.6z M355.7,387.3c-4.1,0.7-8.5,0.2-12.8-0.1
		c-0.5,0-1.1-1.9-1.1-2.9c-0.1-36.4,0-72.9,0-110c5.8,0,10,0,14.9,0c0,9-0.1,17.5,0,26c0.2,26.6,0.5,53.3,0.6,79.9
		C357.4,382.6,356.7,387.1,355.7,387.3z M358.6,245.8c-2.6,3.2-5.3,6.4-8.7,10.4c-3.4-3.6-6.3-6.3-8.4-9.4c-0.5-0.8,1.4-3.7,2.7-5.1
		c1.9-1.9,5.2-5,6.3-4.4c3.1,1.5,5.3,4.7,7.9,7.2C358.6,244.7,358.8,245.5,358.6,245.8z M355.7,224.3c-10,1.8-19.2,0.8-25.8-8.4
		c-6.4-8.9-15.2-11.1-26-8.8c0,5.6,0,11.2,0,16.8c-0.5,0.3-0.9,0.6-1.4,0.9c-0.9-1-2.5-1.9-2.5-2.9c-0.2-13.1-0.1-26.3-0.1-40.7
		c6.6,0.6,12.5,0.2,17.8,1.9c8.5,2.6,9.8,12.6,3.9,20.4c4.5,4.3,8.9,8.5,13.3,12.7c5.4,5.2,12.1,5.7,19.1,5.1
		c1.4-0.1,2.8-0.4,4.3-0.6c0.3,0.4,0.5,0.9,0.8,1.3C357.9,222.7,356.9,224.1,355.7,224.3z M358,185.4c-5.6,0-11.3,0-17.4,0
		c0,3.7,0,7,0,10.5c4.7,0.3,9.2,0.6,13.7,1c0.1,0,0.2,1.2,0.3,2.5c-4.8,0-9.3,0-14.2,0c0,3.7,0,6.8,0,10.1c6.1,0.3,12,0.6,18,1.1
		c0.1,0,0,1.5,0,2.6c-7.2,0-14.3,0-22.5,0c0-9.6-0.1-19,0.1-28.4c0-0.9,1.7-2.6,2.7-2.6c5.8-0.4,11.6-0.5,17.4-0.5
		c1,0,2,1.5,2.9,2.2C358.7,184.5,358.4,185,358,185.4z"/>
	<path d="M53.7,220.9c1.3,0.9,5.1-0.6,6.8-2.1c2.5-2.3,3.6-5.6,1.3-9c-1.5-2.2-3-4.3-4.5-6.4c-6.2,2.1-9.7,5.4-8.8,10
		C48.9,216.3,51.2,219.4,53.7,220.9z"/>
	<path d="M64.6,187.3c-1.7-2.9-4.2-3.6-7.1-1.7c-3.8,2.4-3.5,6.1,1,12.7C65.1,194.8,67,191.4,64.6,187.3z"/>
	<path d="M163.7,342.2c12.4,0,24,0,36.6,0c-6.1-15.3-12-30-18.4-46.1C175.6,312.2,169.7,327.1,163.7,342.2z"/>
	<path d="M303.9,185.4c0,5.9,0,11.2,0,17c6,0.7,11.8,1.9,15.9-3.4c2.4-3.1,2.1-7-0.3-10.2C315.4,183.2,309.5,185.7,303.9,185.4z"/>
	<path d="M123.9,187.6c-2,5.2-3.5,9-5.1,13.1c3.7,0,6.6,0,10.1,0C127.4,196.5,125.9,192.7,123.9,187.6z"/>
	<path d="M267.3,197.6c-0.1,6.8,5.1,12.2,11.7,12.3c7.5,0.1,12.7-5,12.7-12.3c0-7.1-5-12.2-12.2-12.3
		C272.6,185.3,267.3,190.6,267.3,197.6z"/>
	<path class="st0" d="M331.2,241.9c0.9-1.6,1.7-3.3,2.9-5.5c-4.1,0-7.3,0.3-10.4-0.1c-4-0.5-6,1.2-7.8,4.5
		c-9.9,17.9-20.1,35.6-30.1,53.4c-0.7,1.2-1.5,2.4-2.5,3.9c-1.3-2.2-2.4-3.8-3.4-5.6c-9.8-17.4-19.5-34.8-29.3-52.2
		c-0.8-1.5-2.2-3.6-3.4-3.8c-4.5-0.5-9.1-0.2-14.7-0.2c1.4,2.5,2.2,3.9,3,5.4c12.8,22.2,25.5,44.4,38.4,66.5c1.4,2.5,1.5,4.2,0,6.7
		c-13.1,22.4-25.9,44.9-38.8,67.4c-0.8,1.4-1.4,2.9-2.5,5.1c3.3,0.1,5.8,0.2,8.4,0.4c5,0.4,8-1.3,10.6-6.1
		c9.5-17.7,19.6-35.1,29.4-52.6c0.7-1.2,1.5-2.3,2.4-3.8c0.8,1.2,1.3,1.9,1.7,2.6c9.9,17.5,19.7,35,29.5,52.6c4.1,7.4,10.7,9.6,19,6
		c-0.7-1.3-1.2-2.7-2-3.9c-12.8-22.3-25.6-44.7-38.6-67c-1.6-2.8-1.8-4.7-0.1-7.6C305.9,286,318.6,264,331.2,241.9z"/>
	<path class="st0" d="M189.6,251.5c14.2,2.5,27.5,7.6,40.3,16.4c0.3-3.1,0.7-5.3,0.6-7.3c-0.2-3.3,1.4-6.9-2.7-9.4
		c-19.6-12-40.7-18.6-63.7-15c-16.7,2.6-33.1,6.8-49.6,10.9c-24.2,6-47.1,5.4-68-10c-0.3-0.2-0.9-0.1-1.3-0.2
		c-2.1,12.6-1,15.1,9.7,20.8c4.2,2.2,8.8,4,13.3,5.5c3.7,1.2,7.7,1.7,12,2.6c0,40.5,0,80.7,0,121.4c4.5-0.2,8.2-0.4,12.9-0.6
		c0-40.5,0-80.6,0-119.5c17.4-4.5,33.6-8.8,49.9-12.7C158.4,250.5,174,248.7,189.6,251.5z"/>
	<path class="st0" d="M190.4,277.8c-0.5-1.4-2.6-2.7-4.2-3.1c-2.2-0.6-4.6-0.1-7-0.3c-3.7-0.4-5.2,1.4-6.4,4.7
		c-12.7,34.3-25.5,68.5-38.2,102.7c-0.6,1.5-0.8,3.1-1.4,5.3c3.4,0.3,6.1,0.4,8.7,0.9c4,0.7,6-0.8,7.3-4.7
		c2.8-8.7,6.3-17.2,9.2-25.8c1-2.8,2.6-4,5.5-3.9c12,0.1,24,0.1,36,0c3.1,0,4.8,1.1,5.8,4.1c3.1,9,6.3,17.9,9.8,26.6
		c0.7,1.7,3,3.6,4.8,3.7c3.3,0.3,6.8-0.6,10.4-1c-0.5-1.8-0.9-3.3-1.4-4.6C216.5,347.5,203.6,312.6,190.4,277.8z M163.7,342.2
		c6-15.1,11.9-30,18.2-46.1c6.4,16.1,12.3,30.8,18.4,46.1C187.8,342.2,176.2,342.2,163.7,342.2z"/>
	<path class="st0" d="M151.8,66.5c0.6,6.6,3.4,7.7,15.3,6.6c2.3-8.4,6.6-12.3,13.4-12.2c7,0.1,10.7,4.1,13.1,14.4
		c11.2,0,22.5,0,33.8,0c3.1-9.9,6.9-14,13.4-13.7c8.6,0.4,12.3,6,13.3,13.7c15.6,1,16.5,0.5,18.2-9.1c-3.8,0-7.6,0-12.4,0
		c3.4-8.1,10.6-2,14.6-5.3c0-5.9-3.1-9.3-8.8-9.6c-2-0.1-4.1-0.3-6,0c-8.4,1.5-14.4-1.7-18.7-8.8c-5.4-8.9-13.8-9.1-22.7-7.7
		c0,4.9,0,9.6,0,14.7c6.2,0,12,0,17.9,0c1.4,4.3-0.4,4.8-3.6,4.8c-13.3-0.1-26.7,0-40,0c-4.1,0-8.2,0-12.2,0c-1.5-4,0-4.9,3.3-4.9
		c9.8,0.1,19.5,0,29.4,0c0-5.4,0-10.1,0-15c-12.2,0-24,0-35.8,0c-0.8,0-1.8,0-2.4,0.4c-4.5,3.6-9.8,2.3-14.8,2.5
		c-2.5,0.1-4.9,0-7.4,0c0,1.6-0.1,3.4,0,3.4c4.7,0.6,9.3,1,14.8,1.6c-2,2.9-3.2,6.7-5.4,7.4c-6,1.9-5.6,7.4-8.4,10.7
		c2.8,2.8,9.6-2.1,9.2,6C158.8,66.5,155.3,66.5,151.8,66.5z"/>
	<path class="st0" d="M356.8,274.2c-4.9,0-9.2,0-14.9,0c0,37.1,0,73.6,0,110c0,1,0.6,2.9,1.1,2.9c4.3,0.3,8.6,0.8,12.8,0.1
		c1-0.2,1.7-4.7,1.7-7.2c-0.1-26.6-0.4-53.3-0.6-79.9C356.7,291.7,356.8,283.2,356.8,274.2z"/>
	<path class="st0" d="M242.3,126.6c0,1.8,0,3.6,0,5.4c0,11,0,22,0.2,32.9c0,1.5,1.7,2.9,2.6,4.3c0.8-1.5,2.3-3,2.3-4.5
		c0-15.3-0.2-30.6-0.3-46c0-1-0.2-1.9-0.5-4.5c-2.6,1.8-4.8,2.7-6.1,4.3c-5.8,7.2-11.4,14.5-17.4,22.2c-6.2-7.9-11.9-15.5-17.9-22.8
		c-1-1.2-2.9-1.6-4.5-2.4c-0.6,1.5-1.8,3-1.8,4.5c-0.2,15-0.2,30-0.2,45c0,1.3,0.2,2.6,0.4,4c1.6,0,2.8,0,4.9,0
		c0-14.2,0-28.3,0-42.3c0.4-0.1,0.7-0.1,1.1-0.2c5.8,7.2,11.6,14.3,17.9,22.1c6.5-7.9,12.3-15.1,18.2-22.3
		C241.5,126.4,241.9,126.5,242.3,126.6z"/>
	<path class="st0" d="M327.4,168.7c0-7.9,0-15.6,0-23.8c8.9,0,17.4,0,26.4,0c0,8,0,15.8,0,23.6c0,0.1,0.2,0.3,0.5,0.6
		c1.1,0,2.4,0,4.1,0c0-17.9,0-35.5,0-53.2c-3.3-0.8-4.9-0.1-4.8,3.5c0.2,6.9,0.1,13.8,0.1,20.8c-8.2,0-15.5-0.1-22.8,0
		c-2.8,0-3.8-0.8-3.7-3.8c0.3-5.6,0.3-11.3,0.3-17c0-2,0.3-4.6-2.8-3.9c-1,0.2-2.3,2.5-2.3,3.8c-0.2,15.3,0,30.6-0.1,45.9
		C322.2,169.4,323.9,170,327.4,168.7z"/>
	<path class="st0" d="M128.3,169.4c12.1,1.7,22.4-4,24.5-14.5c-2.1,0.6-4.3,1.4-5.6,3c-8,9.6-22.7,9.3-29.5-1.2
		c-2.3-3.6-3.6-8.1-4.5-12.4c-1.7-9,3.2-18.4,11-22c8.7-4.1,16.7-2.1,23.6,5.6c1.2,1.3,3.2,1.9,5.8,3.3
		c-2.6-10.7-12.9-16.9-24.1-15.7c-11.9,1.2-21.6,13.1-21.8,26.5C107.5,156,116.4,167.8,128.3,169.4z"/>
	<path class="st0" d="M253.6,126.3c-1.8,7.5,1.1,14.1,7.9,16.8c3.2,1.3,6.7,1.9,10,2.9c4.8,1.4,7.8,4.4,8,9.6
		c0.2,4.3-2.9,7.8-7.3,8.8c-5.5,1.3-10.1-0.2-12.3-4.9c-1.4-3.1-3.2-3.3-7-2.2c1.4,2.8,2.2,5.6,4,7.7c4.1,4.9,12.6,6.2,18.9,3.5
		c5.6-2.4,8.9-7.7,8.7-13.9c-0.2-6-4-11.2-9.8-13.1c-2.7-0.9-5.5-1.4-8.2-2.2c-5.3-1.5-8.9-5.4-8.6-9.7c0.3-4.6,2.8-7.7,7.3-9
		c5.1-1.4,9.9,0.3,12.3,5c1.6,3.1,3.5,3.5,6.2,2.3c-0.6-7.2-5.8-12-13.2-12.5C262.2,114.9,255.4,119.3,253.6,126.3z"/>
	<path class="st0" d="M260.4,85.7c-35.9,0-71.6,0-107.5,0c0,1.5,0,2.8,0,4.3c36.2,0,71.9,0,107.5,0
		C260.4,88.4,260.4,87.2,260.4,85.7z"/>
	<path class="st0" d="M52,124.9c3.5,0.9,4.6,2.4,4.3,5.8c-0.3,3.3-0.3,6.6-0.3,10c0,9.4,0,18.9,0,28.3c4,1.1,4.7-0.5,4.7-3.4
		c-0.1-11.8,0-23.6,0.2-35.5c0-1.4,1.1-3.8,2.1-4.1c14-3.8,28.2-9.6,41.9,0.9c1.7-3.9,0.1-5.6-2.7-7.2c-9.2-5.5-18.8-4.9-28.4-1.9
		c-9.9,3.1-19.5,5.5-28.8-1.7C44.7,121.4,46,123.4,52,124.9z"/>
	<path class="st0" d="M158.2,213.6c4.8,5.2,9.8,10.3,17.2,11.1c6.4,0.7,12.9,0.5,19.4,0.4c1,0,1.9-1.6,2.9-2.5
		c-5.5-1.1-10.3-1.3-15.1-1.1c-7.8,0.3-14.1-2.5-19.3-8.5c-3.5-4.1-7.8-7.6-12-11.7c4.9-5.9,10.2-12.3,16.1-19.4
		c-1.6-0.1-2.8-0.5-3.2-0.1c-6,6.2-12,12.5-18.7,19.7c0-6.9,0-13,0-19c-0.6-0.2-1.3-0.4-1.9-0.6c-0.6,1.3-1.8,2.6-1.8,4
		c-0.1,12-0.1,24,0,35.9c0,1.2,1.5,2.3,2.2,3.5c0.6-1.1,1.8-2.2,1.8-3.4c0.2-5.1,0.1-10.1,0.1-15.5
		C152,206.7,155.1,210.2,158.2,213.6z"/>
	<path class="st0" d="M156.6,129.7c0,7.6,0,14.6,0,21.5c0,1.2,0,2.3,0.1,3.5c0.9,9.2,7.7,15.3,17.6,15.5c10.3,0.2,17.6-5.4,18.3-15
		c0.6-8.1,0.2-16.2,0.3-24.4c0-0.4-0.4-0.8-0.8-1.5c-1.4,0.1-2.8,0.2-4.4,0.4c0,7.8,0.2,15.3-0.1,22.7c-0.3,7.6-5,12.1-12.2,12.5
		c-7,0.3-11.8-3.5-13.1-10.9c-0.5-2.8-0.4-5.6-0.5-8.4c-0.1-5.3,0-10.5,0-16C160,129.7,158.6,129.7,156.6,129.7z"/>
	<path class="st0" d="M354,221.1c-7,0.7-13.7,0.1-19.1-5.1c-4.4-4.2-8.8-8.4-13.3-12.7c5.8-7.7,4.5-17.8-3.9-20.4
		c-5.3-1.7-11.3-1.3-17.8-1.9c0,14.4-0.1,27.6,0.1,40.7c0,1,1.6,2,2.5,2.9c0.5-0.3,0.9-0.6,1.4-0.9c0-5.6,0-11.2,0-16.8
		c10.8-2.3,19.6-0.1,26,8.8c6.6,9.2,15.8,10.2,25.8,8.4c1.2-0.2,2.3-1.6,3.4-2.5c-0.3-0.4-0.5-0.9-0.8-1.3
		C356.8,220.7,355.4,221,354,221.1z M319.9,199.1c-4.1,5.3-9.9,4-15.9,3.4c0-5.9,0-11.1,0-17c5.6,0.3,11.4-2.2,15.6,3.4
		C322,192,322.3,196,319.9,199.1z"/>
	<path class="st0" d="M317.2,156.3c1.4-3.5-0.2-4.3-3.1-4.2c-6.4,0.1-12.9,0-19.7,0c0-4.6,0-8.5,0-13.2c5.2,0,10.2,0.2,15.1-0.1
		c1.3-0.1,2.4-1.8,3.6-2.7c-0.3-0.6-0.6-1.2-0.9-1.8c-5.9,0-11.7,0-18.1,0c0-3.3,0.2-5.9,0-8.6c-0.4-3.6,0.8-5.1,4.7-4.9
		c6.3,0.3,12.5,0.1,18.8,0.1c0.3-0.7,0.6-1.4,0.9-2.1c-1.3-1-2.5-2.9-3.8-3c-7.5-0.1-15,0.1-22.4,0.5c-1.2,0.1-3.3,1.6-3.3,2.5
		c-0.2,12.4-0.1,24.9-0.1,37.5C298.7,156.3,308,156.3,317.2,156.3z"/>
	<path class="st0" d="M99.3,133.9c3.4,0,4-1.5,2.8-4.4c-9.2,0-18.3,0-27.7,0c0,13.4,0,26.4,0,39.7c9.6,0,18.7,0,27.9,0
		c0-1.5,0-2.9,0-4.7c-7.8,0-15.2,0-22.9,0c0-4.3,0-8.1,0-12.9c5,0,9.9-0.1,14.9,0c3.6,0.1,3.8-1.4,2.6-4.4c-5.7,0-11.4,0-17.4,0
		c0-4.5,0-8.7,0-13.4C86.4,133.8,92.8,133.8,99.3,133.9z"/>
	<path class="st0" d="M52.9,224.6c6.8,1.4,10.5-2.4,12.9-8c3.8,2.4,3.9,9.1,10.8,7.6c-5.5-7.7-10.7-15-15.9-22.2
		c8.7-8,10.2-11.9,6.6-17c-2.5-3.6-7.6-4.6-11.6-2.3c-5.3,3.1-5.6,7.2-1,18c-6.4,3.2-11.4,7.7-9.7,15.8
		C45.9,220.5,48.5,223.6,52.9,224.6z M57.5,185.6c2.9-1.8,5.4-1.2,7.1,1.7c2.4,4.1,0.5,7.5-6.2,11C54,191.7,53.7,188,57.5,185.6z
		 M57.2,203.5c1.5,2.1,3,4.2,4.5,6.4c2.3,3.4,1.2,6.7-1.3,9c-1.6,1.5-5.4,2.9-6.8,2.1c-2.4-1.6-4.8-4.7-5.3-7.5
		C47.5,208.9,51,205.6,57.2,203.5z"/>
	<path class="st0" d="M258.8,220.9c0-11.8,0.2-23.6,0.2-35.4c0-1.3-1.3-2.5-1.9-3.8c-0.7,1.2-2,2.4-2.1,3.6
		c-0.2,5.2-0.1,10.5-0.1,15.7c-7.5,0-14.2,0-21.1,0c0-5.7,0.1-11-0.1-16.4c-0.1-1.2-1.6-2.2-2.5-3.3c-0.5,0.3-1,0.6-1.5,0.8
		c0,13.3-0.1,26.6,0.1,39.8c0,1,1.8,1.9,2.8,2.9c0.4-0.4,0.8-0.7,1.2-1.1c0-6.1,0-12.2,0-18.6c7.1,0,13.8,0,20.9,0
		c0,6.4,0,12.5,0,18.9C258.5,225.3,258.8,223.4,258.8,220.9z"/>
	<path class="st0" d="M262.7,197.5c0,9.1,7.7,16.9,16.7,16.9c9,0,17.1-7.9,16.9-16.8c-0.1-9.1-7.6-16.6-16.5-16.5
		C270.3,181.1,262.7,188.4,262.7,197.5z M291.7,197.6c0,7.3-5.2,12.4-12.7,12.3c-6.6-0.1-11.8-5.5-11.7-12.3
		c0.1-7.1,5.3-12.4,12.2-12.3C286.7,185.4,291.7,190.5,291.7,197.6z"/>
	<path class="st0" d="M215.7,220.7c-4.3,1.2-7.8,0.3-10.3-3.7c-0.8-1.3-2.5-2-3.8-3c-0.2,7,2.6,9.8,8.6,11
		c5.2,1.1,10.9-1.4,13.4-5.6c2.4-4.2,2-10.2-1.2-13.5c-1.5-1.6-3.8-2.6-5.8-3.5c-2-0.9-4.1-1.2-6.2-1.8c-3.9-1.1-7-3.8-6.2-7.8
		c0.5-2.6,3-5.6,5.4-6.8c3.4-1.6,7.1-0.7,9.8,2.7c1.1,1.4,2.9,2.4,4.3,3.6c0.3-6.8-3.6-10.4-9.6-10.8c-6.7-0.5-11.9,2.8-13.5,8.6
		c-1.6,5.8,0.5,11,5.8,13.3c2.6,1.1,5.4,1.6,8.1,2.4c4.1,1.2,6.9,3.6,6.9,8.1C221.1,217.3,219.2,219.7,215.7,220.7z"/>
	<path class="st0" d="M119.2,224.1c4.6,0.9,9.6,0.5,14.3,0.1c2.6-0.3,5.7-1.3,4.5-6c-8.2,3.8-16.3,2.4-24.5,0.5
		c-4.7-1.1-9.7-1-14.9-1.4c0-1,0-2.6,0-4.3c0-9.2,0.1-18.3-0.1-27.5c0-1.4-1.3-2.7-2.1-4.1c-0.5,0.2-1.1,0.5-1.6,0.7
		c0,14.1,0,28.1,0,43.6C103.2,218.6,111.1,222.6,119.2,224.1z"/>
	<path class="st0" d="M196.1,185.5c0.3-0.5,0.5-1,0.8-1.5c-1-0.8-2-2.2-3-2.2c-6.6-0.2-13.2-0.1-20.1-0.1c0,11.2,0,21.5,0,32.6
		c6.9,0,13.5,0.1,20.1-0.1c1,0,2-1.6,3-2.5c-0.3-0.5-0.6-1-0.9-1.5c-6.1,0-12.1,0-18.1,0c0-3.7,0-6.8,0-10.3c3.9,0,7.5,0.2,11.2-0.1
		c1.1-0.1,2.2-1.2,3.2-1.9c-1.1-0.5-2.1-1.4-3.2-1.4c-3.7-0.2-7.5-0.1-11.2-0.1c0-4,0-7.2,0-10.9
		C184.3,185.5,190.2,185.5,196.1,185.5z"/>
	<path class="st0" d="M115.1,210.7c1.3-2,2-5.6,3.6-6c3.4-0.9,7.4-0.9,10.8,0c1.6,0.4,2.1,4.1,3.3,6.2c0.9,1.4,2.2,2.4,3.4,3.6
		c0.5-0.5,1-1,1.5-1.5c-3.6-9.6-7.2-19.2-10.9-28.7c-0.4-1.1-2-2.4-3-2.4c-1,0.1-2.4,1.5-2.9,2.6c-3.2,8.3-6.3,16.8-9.3,25.2
		c-0.4,1.3,0,2.9,0.1,4.4C112.9,212.9,114.2,212,115.1,210.7z M123.9,187.6c2,5.1,3.4,8.9,5.1,13.1c-3.5,0-6.4,0-10.1,0
		C120.5,196.6,121.9,192.8,123.9,187.6z"/>
	<path class="st0" d="M356.1,181.7c-5.8-0.1-11.6,0.1-17.4,0.5c-1,0.1-2.7,1.7-2.7,2.6c-0.2,9.4-0.1,18.8-0.1,28.4
		c8.2,0,15.3,0,22.5,0c0-1.1,0-2.6,0-2.6c-6-0.4-11.9-0.7-18-1.1c0-3.4,0-6.5,0-10.1c4.9,0,9.5,0,14.2,0c-0.2-1.3-0.2-2.4-0.3-2.5
		c-4.5-0.4-9.1-0.7-13.7-1c0-3.5,0-6.8,0-10.5c6.1,0,11.8,0,17.4,0c0.4-0.5,0.7-1,1.1-1.5C358.1,183.2,357.1,181.8,356.1,181.7z"/>
	<path class="st0" d="M248.7,74.6c0.1-4.8-3.3-8.2-8-8.2c-4.4,0-7.9,3.5-8,7.8c-0.1,4.5,3.6,8.2,8.2,8.2
		C245.4,82.4,248.7,79.1,248.7,74.6z"/>
	<path class="st0" d="M188.4,74.4c-0.1-4.4-4-8.1-8.5-7.9c-4.4,0.2-7.7,3.7-7.6,8.1c0,4.6,3.7,8.1,8.3,7.9
		C184.9,82.3,188.5,78.6,188.4,74.4z"/>
	<path class="st0" d="M350.4,237.1c-1.1-0.6-4.4,2.6-6.3,4.4c-1.4,1.4-3.3,4.3-2.7,5.1c2.1,3.2,5,5.8,8.4,9.4
		c3.4-4,6.1-7.2,8.7-10.4c0.2-0.2,0-1.1-0.3-1.4C355.8,241.8,353.5,238.7,350.4,237.1z"/>
	<path class="st0" d="M148.3,57.8c-7,0-13.7,0-20.4,0c0,1.6,0,2.9,0,4.4c6.9,0,13.6,0,20.4,0C148.3,60.5,148.3,59.2,148.3,57.8z"/>
	<path class="st0" d="M133.9,90.2c4.9,0,9.6,0,14.4,0c0-1.6,0-3,0-4.5c-4.9,0-9.5,0-14.4,0C133.9,87.4,133.9,88.7,133.9,90.2z"/>
	<path class="st0" d="M264.9,90.1c4.2,0,7.9,0,11.5,0c0-1.6,0-2.9,0-4.3c-3.9,0-7.6,0-11.5,0C264.9,87.3,264.9,88.5,264.9,90.1z"/>
	<path class="st0" d="M303.9,169.2c1-0.9,2.1-1.9,3.2-3c-1.3-1.5-2.1-2.4-3.2-3.7C299.8,166,299.8,166,303.9,169.2z"/>
	<path class="st0" d="M149.3,37.6c-1.5,0-2.8,0-4.4,0c0,1.8,0,3,0,4.5c1.6,0,2.9,0,4.4,0C149.3,40.5,149.3,39.2,149.3,37.6z"/>
</g>
</svg>
