<?xml version="1.0" encoding="utf-8"?>
<!-- Generator: Adobe Illustrator 26.0.2, SVG Export Plug-In . SVG Version: 6.00 Build 0)  -->
<svg version="1.1" id="Layer_1" xmlns="http://www.w3.org/2000/svg" xmlns:xlink="http://www.w3.org/1999/xlink" x="0px" y="0px"
	 viewBox="0 0 122.9 107.9" style="enable-background:new 0 0 122.9 107.9;" xml:space="preserve">
<style type="text/css">
	.st0{fill-rule:evenodd;clip-rule:evenodd;fill:#59452E;}
</style>
<path class="st0" d="M115.8,32.9c1.9-0.6,3.9,0.4,5.3,2c0.5,0.8,0.8,1.6,1,2.5c0.2,0.8,0.3,1.7,0.2,2.5c-1.1,2.7-3,3.6-5.3,5.2
	c-2.2,1.1-4.5,2.1-6.9,2.9c-1.3,0.5-2.6,0.9-3.8,1.3s-2.6,0.8-3.9,1.1c-1.1,0.2-2.2,0.4-3.4,0.4c-3.7,0-7.3-1.4-10.1-3.8
	c-1.1-0.9-2.1-1.9-3-2.9l-0.3-0.3l-5.2,14.7c2,1.3,4.1,2.5,6.2,3.5c6.7,3.1,12.2,5.7,13.4,16.2c0.2,1.4,0.2,8.9,0.1,14.8h22.8V108H0
	v-7.2h19.5c-2.2-1.6-2.8-4.6-1.2-6.9c1.6-2.2,4.6-2.8,6.9-1.2c2,1.4,2.6,4,1.6,6.2c-0.4,0.8-0.9,1.4-1.6,1.9h25.9
	c1.3-3.7,3.8-11.6,4.9-14.8c2.5-7.2,4.9-14.6,6.7-20.5c-1.1-1.3-2-2.8-2.8-4.4c-0.6-1.3-0.9-2.6-1-4.1c0-0.5,0-1.1,0.1-1.6l6.3-18.1
	c-1.3-0.1-2.9-0.5-4.1,0.1c-2.4,1.1-6,6.3-8.2,8.4l-2.8,2.9c-2.1,2.1-3.5,4.5-6.7,4.4l-1.9,3.9l0,0L26.2,89.5l-0.3-0.2
	c-4.1-1.9-8.9-0.2-10.9,3.8c-0.2,0.3-0.3,0.7-0.4,1l-8.2-4L4.5,94L0,91.6l2.1-4.4c-0.9-1.5-1-3.4-0.3-5l6.1-12.6l6,2.7
	c0.6,0.4,1.4,0.2,1.8-0.4c0.4-0.6,0.2-1.4-0.4-1.8C15.2,70.1,15.1,70,15,70l-6-2.8l3.7-7.7l6.3,2.8c0.7,0.3,1.4,0,1.7-0.7
	s0-1.4-0.7-1.7l-6.2-2.8l3.2-6.5c1.2-2.6,4.4-3.7,6.9-2.4L38,55l1.7-3.6c-2.1-1.7-2.3-4.8-0.6-6.9c0,0,0,0,0,0l6.6-6.7
	c3.2-3.2,6.2-7.6,10.1-9.9c3.7-2.1,7.9-3.1,12.2-2.8c2.1,0,4.3,0.2,6.3,0.4l2.4,0.2c9.5,0.6,13.9,5.6,17.3,9.5
	c1.5,1.7,2.8,3.2,4.3,3.9c0.7,0.3,1.7-0.1,2.9-0.6l8.8-3.3L115.8,32.9L115.8,32.9L115.8,32.9z M88,93.1c0.1-5.6,0.1-11.7,0.1-12.9
	s-0.9-4.2-2.1-4.8c-1.6-0.7-3.3-1.3-5-1.9c-2.4-0.8-4.3-1.6-6.7-2.2c-1.7,5.7-4,12.5-6.5,19l-3.6,10.4h12.4v-7.6L88,93.1z M76.4,0.6
	c5.9-2,12.4,1.1,14.4,7.1c2,5.9-1.1,12.4-7.1,14.4S71.4,21,69.4,15c-0.4-1.2-0.6-2.4-0.6-3.7C68.8,6.5,71.8,2.2,76.4,0.6z"/>
</svg>
